<mxfile host="Electron" modified="2023-11-02T07:55:58.323Z" agent="Mozilla/5.0 (Macintosh; Intel Mac OS X 10_15_7) AppleWebKit/537.36 (KHTML, like Gecko) draw.io/21.5.1 Chrome/112.0.5615.204 Electron/24.6.0 Safari/537.36" etag="hn5Ry26XJWo5itxP1C_G" version="21.5.1" type="device">
  <diagram name="Page-1" id="KK8qkjwhp5_4KtDK2qiT">
    <mxGraphModel dx="555" dy="402" grid="1" gridSize="10" guides="1" tooltips="1" connect="1" arrows="1" fold="1" page="1" pageScale="1" pageWidth="4681" pageHeight="3300" math="0" shadow="0">
      <root>
        <mxCell id="0" />
        <mxCell id="1" parent="0" />
        <mxCell id="MD--3yOAeOc309OUC1Tz-1" value="Data Product" style="rounded=1;whiteSpace=wrap;html=1;arcSize=6;verticalAlign=top;align=left;spacingLeft=3;spacingBottom=3;spacing=5;sketch=1;curveFitting=1;jiggle=2;shadow=0;fontFamily=Architects Daughter;fontSource=https%3A%2F%2Ffonts.googleapis.com%2Fcss%3Ffamily%3DArchitects%2BDaughter;fontStyle=1;fillColor=#dae8fc;strokeColor=#6c8ebf;fontSize=14;" parent="1" vertex="1">
          <mxGeometry x="290" y="140" width="540" height="300" as="geometry" />
        </mxCell>
        <mxCell id="MD--3yOAeOc309OUC1Tz-2" value="&lt;p style=&quot;line-height: 120%;&quot;&gt;Output Port&lt;br&gt;&lt;font style=&quot;font-weight: normal; font-size: 8px;&quot;&gt;Data Model &amp;amp; Technology&lt;/font&gt;&lt;/p&gt;" style="rounded=1;whiteSpace=wrap;html=1;fillColor=#FFFFFF;strokeColor=#666666;fontFamily=Architects Daughter;fontSource=https%3A%2F%2Ffonts.googleapis.com%2Fcss%3Ffamily%3DArchitects%2BDaughter;fontStyle=1;sketch=1;curveFitting=1;jiggle=2;fontColor=#333333;spacingLeft=22;" parent="1" vertex="1">
          <mxGeometry x="790" y="195" width="120" height="60" as="geometry" />
        </mxCell>
        <mxCell id="MD--3yOAeOc309OUC1Tz-4" value="Input Port&lt;br&gt;&lt;span style=&quot;font-weight: normal;&quot;&gt;&lt;font style=&quot;font-size: 8px;&quot;&gt;Operational Systems&lt;/font&gt;&lt;/span&gt;" style="rounded=1;whiteSpace=wrap;html=1;fillColor=#FFFFFF;strokeColor=#666666;fontFamily=Architects Daughter;fontSource=https%3A%2F%2Ffonts.googleapis.com%2Fcss%3Ffamily%3DArchitects%2BDaughter;fontStyle=1;sketch=1;curveFitting=1;jiggle=2;fontColor=#333333;fillStyle=solid;spacingLeft=24;" parent="1" vertex="1">
          <mxGeometry x="200" y="195" width="120" height="60" as="geometry" />
        </mxCell>
        <mxCell id="MD--3yOAeOc309OUC1Tz-5" value="Data Storage&lt;br&gt;&amp;nbsp;" style="shape=cylinder3;whiteSpace=wrap;html=1;boundedLbl=1;backgroundOutline=1;size=10;fontFamily=Architects Daughter;fontSource=https%3A%2F%2Ffonts.googleapis.com%2Fcss%3Ffamily%3DArchitects%2BDaughter;fontStyle=1;sketch=1;curveFitting=1;jiggle=2;fillColor=#FFFFFF;strokeColor=#d79b00;spacingLeft=20;" parent="1" vertex="1">
          <mxGeometry x="490" y="265" width="130" height="65" as="geometry" />
        </mxCell>
        <mxCell id="MD--3yOAeOc309OUC1Tz-6" value="Transformation Code" style="rounded=1;whiteSpace=wrap;html=1;fontFamily=Architects Daughter;fontSource=https%3A%2F%2Ffonts.googleapis.com%2Fcss%3Ffamily%3DArchitects%2BDaughter;fontStyle=1;sketch=1;curveFitting=1;jiggle=2;fillColor=#FFFFFF;strokeColor=#d79b00;spacingLeft=24;" parent="1" vertex="1">
          <mxGeometry x="495" y="185" width="120" height="60" as="geometry" />
        </mxCell>
        <mxCell id="MD--3yOAeOc309OUC1Tz-7" value="Policies &lt;br&gt;as Code" style="rounded=1;whiteSpace=wrap;html=1;fontFamily=Architects Daughter;fontSource=https%3A%2F%2Ffonts.googleapis.com%2Fcss%3Ffamily%3DArchitects%2BDaughter;fontStyle=1;sketch=1;curveFitting=1;jiggle=2;fillColor=#FFFFFF;strokeColor=#d79b00;spacingLeft=20;" parent="1" vertex="1">
          <mxGeometry x="350" y="350" width="120" height="60" as="geometry" />
        </mxCell>
        <mxCell id="MD--3yOAeOc309OUC1Tz-8" value="Discovery Port&lt;br&gt;&lt;font style=&quot;font-size: 8px;&quot;&gt;Metadata&lt;/font&gt;" style="rounded=1;whiteSpace=wrap;html=1;fillColor=#FFFFFF;strokeColor=#666666;fontFamily=Architects Daughter;fontSource=https%3A%2F%2Ffonts.googleapis.com%2Fcss%3Ffamily%3DArchitects%2BDaughter;fontStyle=1;sketch=1;curveFitting=1;jiggle=2;fontColor=#333333;spacingLeft=20;" parent="1" vertex="1">
          <mxGeometry x="410" y="100" width="120" height="60" as="geometry" />
        </mxCell>
        <mxCell id="MD--3yOAeOc309OUC1Tz-9" value="Documentation" style="rounded=1;whiteSpace=wrap;html=1;fontFamily=Architects Daughter;fontSource=https%3A%2F%2Ffonts.googleapis.com%2Fcss%3Ffamily%3DArchitects%2BDaughter;fontStyle=1;sketch=1;curveFitting=1;jiggle=2;fillColor=#FFFFFF;strokeColor=#d79b00;spacingLeft=33;" parent="1" vertex="1">
          <mxGeometry x="350" y="270" width="120" height="60" as="geometry" />
        </mxCell>
        <mxCell id="MD--3yOAeOc309OUC1Tz-11" value="Observability" style="rounded=1;whiteSpace=wrap;html=1;fontFamily=Architects Daughter;fontSource=https%3A%2F%2Ffonts.googleapis.com%2Fcss%3Ffamily%3DArchitects%2BDaughter;fontStyle=1;sketch=1;curveFitting=1;jiggle=2;fillColor=#FFFFFF;strokeColor=#d79b00;spacingLeft=27;" parent="1" vertex="1">
          <mxGeometry x="640" y="350" width="120" height="60" as="geometry" />
        </mxCell>
        <mxCell id="MD--3yOAeOc309OUC1Tz-13" value="Tests" style="rounded=1;whiteSpace=wrap;html=1;fontFamily=Architects Daughter;fontSource=https%3A%2F%2Ffonts.googleapis.com%2Fcss%3Ffamily%3DArchitects%2BDaughter;fontStyle=1;sketch=1;curveFitting=1;jiggle=2;fillColor=#FFFFFF;strokeColor=#d79b00;spacingLeft=20;" parent="1" vertex="1">
          <mxGeometry x="640" y="185" width="120" height="60" as="geometry" />
        </mxCell>
        <mxCell id="MD--3yOAeOc309OUC1Tz-26" value="CI/CD Pipeline" style="rounded=1;whiteSpace=wrap;html=1;fontFamily=Architects Daughter;fontSource=https%3A%2F%2Ffonts.googleapis.com%2Fcss%3Ffamily%3DArchitects%2BDaughter;fontStyle=1;sketch=1;curveFitting=1;jiggle=2;fillColor=#FFFFFF;strokeColor=#d79b00;spacingLeft=22;" parent="1" vertex="1">
          <mxGeometry x="495" y="350" width="120" height="60" as="geometry" />
        </mxCell>
        <mxCell id="MD--3yOAeOc309OUC1Tz-27" value="Cost Management" style="rounded=1;whiteSpace=wrap;html=1;fontFamily=Architects Daughter;fontSource=https%3A%2F%2Ffonts.googleapis.com%2Fcss%3Ffamily%3DArchitects%2BDaughter;fontStyle=1;sketch=1;curveFitting=1;jiggle=2;fillColor=#FFFFFF;strokeColor=#d79b00;spacingLeft=20;" parent="1" vertex="1">
          <mxGeometry x="640" y="265" width="120" height="60" as="geometry" />
        </mxCell>
        <mxCell id="MD--3yOAeOc309OUC1Tz-29" value="Ownership &amp;amp; &lt;br&gt;Life Cycle" style="rounded=1;whiteSpace=wrap;html=1;fontFamily=Architects Daughter;fontSource=https%3A%2F%2Ffonts.googleapis.com%2Fcss%3Ffamily%3DArchitects%2BDaughter;fontStyle=1;sketch=1;curveFitting=1;jiggle=2;fillColor=#FFFFFF;strokeColor=#d79b00;spacingLeft=24;" parent="1" vertex="1">
          <mxGeometry x="350" y="185" width="120" height="60" as="geometry" />
        </mxCell>
        <mxCell id="XnZhI7uA2pk-xDkV5aSI-1" value="Input Port&lt;br&gt;&lt;span style=&quot;font-size: 8px; font-weight: 400;&quot;&gt;&amp;nbsp;&amp;nbsp;&lt;/span&gt;" style="rounded=1;whiteSpace=wrap;html=1;fillColor=#FFFFFF;strokeColor=#666666;fontFamily=Architects Daughter;fontSource=https%3A%2F%2Ffonts.googleapis.com%2Fcss%3Ffamily%3DArchitects%2BDaughter;fontStyle=1;sketch=1;curveFitting=1;jiggle=2;fontColor=#333333;fillStyle=solid;spacingLeft=24;" parent="1" vertex="1">
          <mxGeometry x="200" y="265" width="120" height="60" as="geometry" />
        </mxCell>
        <mxCell id="XnZhI7uA2pk-xDkV5aSI-3" value="Output Port&lt;br&gt;&lt;font style=&quot;font-weight: normal; font-size: 8px;&quot;&gt;Data Model &amp;amp; Technology&lt;br&gt;&lt;/font&gt;" style="rounded=1;whiteSpace=wrap;html=1;fillColor=#FFFFFF;strokeColor=#666666;fontFamily=Architects Daughter;fontSource=https%3A%2F%2Ffonts.googleapis.com%2Fcss%3Ffamily%3DArchitects%2BDaughter;fontStyle=1;sketch=1;curveFitting=1;jiggle=2;fontColor=#333333;spacingLeft=22;" parent="1" vertex="1">
          <mxGeometry x="790" y="265" width="120" height="60" as="geometry" />
        </mxCell>
        <mxCell id="XnZhI7uA2pk-xDkV5aSI-5" value="datamesh-architecture.com" style="text;html=1;strokeColor=none;fillColor=none;align=center;verticalAlign=middle;whiteSpace=wrap;rounded=0;fontFamily=Architects Daughter;fontSource=https%3A%2F%2Ffonts.googleapis.com%2Fcss%3Ffamily%3DArchitects%2BDaughter;" parent="1" vertex="1">
          <mxGeometry x="665" y="440" width="165" height="30" as="geometry" />
        </mxCell>
        <mxCell id="JU8ZH0bHldErWSdaX4iS-8" value="" style="shape=image;verticalLabelPosition=bottom;labelBackgroundColor=default;verticalAlign=top;aspect=fixed;imageAspect=0;image=data:image/svg+xml,PHN2ZyB4bWxucz0iaHR0cDovL3d3dy53My5vcmcvMjAwMC9zdmciIHZpZXdCb3g9IjAgMCAyNCAyNCI+PGc+PHBhdGggZmlsbC1ydWxlPSJldmVub2RkIiBmaWxsPSIjMTkxOTE5IiBkPSJNMTUuNzEgNS42MWE0LjEzIDQuMTMgMCAwIDEtLjY2LS4wNWMuMDYtLjIyLjE1LS40OC4yNC0uNzYuNDMtMS40Mi42NC0yLjkxLS41LTMuODdhLjI3LjI3IDAgMCAwLS4zNy4zOWMxLjE4IDEuMjgtLjI3IDMuMDUtLjQyIDQuMzlzMy4wNy45IDQuMTguMzlsMS42OS0uNzFhLjM1LjM1IDAgMCAwLS4xNy0uNjZjLTIuMTIuNzctMi4yMS45Mi0zLjk5Ljg4WiIvPjxwYXRoIGZpbGwtcnVsZT0iZXZlbm9kZCIgZmlsbD0iIzE5MTkxOSIgZD0iTTE1Ljg4LjA2QzE0LjUgMCAxNS4xMyAwIDYgMGEuMzEuMzEgMCAwIDAgMCAuNjVjOC41MS4wNyA4Ljc2IDAgOS44Mi4xNnMzLjc1IDIuNjUgNC40MyAzLjdhMS4xMSAxLjExIDAgMCAxIC4yNS42MWMtLjEgMS41NC0uNzQgNi0xIDcuMDhzLS40NSAxLjgtLjYzIDIuNzFjLS4wNy4zNi0uNTIgNC42LTEuNjUgNS4xNS0xLjU5Ljc3LTMuMzcuMjYtNSAuNGE0NS41NCA0NS41NCAwIDAgMS00LjU4LjIxYy01LjQtLjE5LTUuMTUtLjExLTYuNjEtLjgxIDEuMzMtMS44MSAyLjIyLTYgMi42OS04LjQ1LjUzLTIuNy4zNS01LjQ1LjU2LTguMTcgMC0uNDcuNDctMy0uMy0yLjYyLS4zMS4xNC0uMjEuNi0uMjEuODEgMCAxLjM1LS4zMyA2LjU5LS40MSA3LjQ2QTM2LjY3IDM2LjY3IDAgMCAxIC44OCAxOC40Yy0uMTYuMy0uMzUuNTktLjUzLjg3YTIgMiAwIDAgMC0uMzQuNTcuNzYuNzYgMCAwIDAgLjQzLjc2IDcuMSA3LjEgMCAwIDAgMiAuNzYgNTcuODQgNTcuODQgMCAwIDAgOS44NC4xM2MxLjY5LS4xNSAzLjU3LjM5IDUuNDEtLjUxIDEuNjgtLjgyIDIuMDYtNS4yNSAyLjE4LTUuODguMTctLjkxLjQxLTEuOC41OS0yLjdzLjc5LTUuNS44OC03LjI0Yy4wOC0xLjUxLTQuMDctNC45OS01LjQ2LTUuMVoiLz48cGF0aCBmaWxsLXJ1bGU9ImV2ZW5vZGQiIGZpbGw9IiMwYzZmZmYiIGQ9Ik0yMy4wOSA1LjgxYy0uMSAxLjU0LS45NCA3LjcxLTEuMTYgOC43NXMtLjQ1IDEuOC0uNjMgMi43MWMtLjA3LjM2LS41MiA0LjYtMS42NSA1LjE1LTEuNTkuNzYtMy4zNy4yNi01IC40LTEgLjA5LTMuMjQuMjUtNC41OC4yMS01LjE1LS4xOS01LjE0IDAtNi40LS41Ny0uNzMtLjI5LS45MS40MS0uNDYuNzJhNCA0IDAgMCAwIDEuNjkuNTQgNTcgNTcgMCAwIDAgOS44My4xMmMxLjY5LS4xNCAzLjU3LjQgNS40MS0uNSAxLjY4LS44MiAyLjA3LTUuMjUgMi4xOC01Ljg4LjE3LS45MS40MS0xLjguNTktMi43UzIzLjkyIDcuNjggMjQgNmMuMDUtLjk0LS44LTEuMDgtLjkxLS4xOVoiLz48cGF0aCBmaWxsLXJ1bGU9ImV2ZW5vZGQiIGZpbGw9IiMxOTE5MTkiIGQ9Ik04Ljc4IDkuNzZjMC0uMDguMDctLjE3LjMtLjE2cy43MS4xOS43NS0uMTZhLjI2LjI2IDAgMCAwLS4yMi0uMjljLS4zOC0uMDYtLjg4LS4zMi0xLjMyLjE4cy0uMjkgMS4yNS0uMzYgMS43NmMtLjA5Ljg2LTEgMS40MS0xLjIxIDEuNjZhLjUxLjUxIDAgMCAwIC4yOC44NmMuMDYgMCAuMjcuMDkuMzEgMCAuNTcuMy4yOCAxLjI2LjQzIDEuODYuMjQgMSAuOTUgMSAxLjkzIDEuMWEuMjkuMjkgMCAwIDAgMC0uNTggMi41OSAyLjU5IDAgMCAxLS44Ny0uMjJjLS44LS4zNy4zMS0yLS44My0yLjg4IDEuNDEtMS40My40Ni0yLjQ2LjgxLTMuMTNaIi8+PHBhdGggZmlsbC1ydWxlPSJldmVub2RkIiBmaWxsPSIjMTkxOTE5IiBkPSJNMTQgMTUuODJhMi41OSAyLjU5IDAgMCAxLS44Ny4yMS4yOS4yOSAwIDAgMCAwIC41OGMxLS4wNiAxLjY5LS4xMyAxLjkzLTEuMDkuMTMtLjUzLS4wNi0xLjIuMjItMS42OS4xOC0uMzEuOTQtLjc3Ljk0LTEuMTdhLjY4LjY4IDAgMCAwLS40MS0uNTNjLS4yMi0uMS0uNzgtLjM3LS44NC0uNjItLjE2LTEuMjQtLjE0LTEuNzktLjQ3LTIuMTdzLS45NC0uMjQtMS4zMS0uMThhLjI3LjI3IDAgMCAwLS4yMy4yOWMuMDUuMzQuNDMuMTguNzYuMTYuNTMgMCAuMzUuOC4zMyAxLjUxYTEuNjQgMS42NCAwIDAgMCAuOTEgMS42NSAxLjc3IDEuNzcgMCAwIDAtLjcxIDEuMjNjLS4wNy44Mi4yNyAxLjU1LS4yNSAxLjgyWiIvPjwvZz48L3N2Zz4=;" parent="1" vertex="1">
          <mxGeometry x="498" y="206" width="24" height="24" as="geometry" />
        </mxCell>
        <mxCell id="JU8ZH0bHldErWSdaX4iS-9" value="" style="shape=image;verticalLabelPosition=bottom;labelBackgroundColor=default;verticalAlign=top;aspect=fixed;imageAspect=0;image=data:image/svg+xml,PHN2ZyB4bWxucz0iaHR0cDovL3d3dy53My5vcmcvMjAwMC9zdmciIHZpZXdCb3g9IjAgMCAyNCAyNCI+PGc+PHBhdGggZmlsbD0iIzBjNmZmZiIgZD0iTTE4Ljg0IDIuNTFBOC42MyA4LjYzIDAgMCAxIDIwLjE1IDRsLS43OSA2Ljc2YzAgLjM5LjIzLjU3LjQ2LjI1LjM1LS44NyAxLjcyLTYuNzMgMS4xMi03LjY5YTEzLjQzIDEzLjQzIDAgMCAwLTIuNy0yLjUuMzMuMzMgMCAwIDAtLjQ0LjVaIi8+PGc+PHBhdGggZmlsbD0iIzE5MTkxOSIgZD0iTTIyLjA1IDE0LjM2YTYgNiAwIDAgMC05LjcuNjFjLTEuNzIgMi41My0uODQgNi4yNS44NyA3LjM1YS4zMS4zMSAwIDAgMCAuMzQtLjUxYy0xLjM2LS45NS0yLTQuMjMtLjQ0LTYuMjlhNS4xNCA1LjE0IDAgMCAxIDgtLjQyYzIuNTQgMyAxIDcuNTctMy40NCA4LjA5YTUuOSA1LjkgMCAwIDEtMi40MS0uMTkuMzUuMzUgMCAwIDAtLjIxLjY2IDYuNjEgNi42MSAwIDAgMCAyLjczLjI5IDUuODEgNS44MSAwIDAgMCA0LjI2LTkuNTlaIi8+PHBhdGggZmlsbD0iIzE5MTkxOSIgZD0iTTE2IDIwLjU2YTEuMTYgMS4xNiAwIDAgMCAuODctLjQ2IDExLjI5IDExLjI5IDAgMCAwIC45NS0xLjI5Yy4xNy0uMjggMS41OS0zIDEuNTktMy4xOWEuMzcuMzcgMCAwIDAtLjY3LS4xOGMtLjQ3LjU3LTIuMzEgMy40LTIuNzIgNC0uMDUuMDkgMCAuMi0uMTEuMTctLjQ4LS4xOS0uNS0uNjUtLjg5LS44OHMtLjcxIDAtLjU0LjQ1YTQuNDggNC40OCAwIDAgMCAuNDIuNzEgMS4zOCAxLjM4IDAgMCAwIDEuMS42N1oiLz48Zz48cGF0aCBmaWxsPSIjMTkxOTE5IiBkPSJNNS41NyA1LjM1YTguMzkgOC4zOSAwIDAgMCAxLjU1LjM3IDEwLjU3IDEwLjU3IDAgMCAwIDMuMTEgMCAuMzUuMzUgMCAwIDAgMC0uNjkgMTAuNSAxMC41IDAgMCAwLTMuMS0uMzggNSA1IDAgMCAwLTEuNjguMTRjLS4xMy4wOS0uMTguMzguMTIuNTZaIi8+PHBhdGggZmlsbD0iIzE5MTkxOSIgZD0iTTUuMjQgOS4zN2EuMzEuMzEgMCAxIDAgLjUuMzUgMTguNzkgMTguNzkgMCAwIDEgMi45NS4xNiA1OS41NSA1OS41NSAwIDAgMCA2LS4zNS4zNS4zNSAwIDAgMCAwLS42OSA0MiA0MiAwIDAgMC03LjEgMGMtLjQ4LjA3LTIuMDMtLjAyLTIuMzUuNTNaIi8+PHBhdGggZmlsbD0iIzE5MTkxOSIgZD0iTTExLjQ3IDEzLjQ2YTE0LjA2IDE0LjA2IDAgMCAwLTUuMTMgMGMtLjc5LjEzLS45My4xMi0xLjA2LjIzYS4zMi4zMiAwIDAgMCAuMTQuNTdzLjMgMCAuNCAwYTE5LjQzIDE5LjQzIDAgMCAwIDUuNjQgMCAuMzUuMzUgMCAwIDAgLjAxLS44WiIvPjxwYXRoIGZpbGw9IiMxOTE5MTkiIGQ9Ik0xMC44MSAxNy44OWMtMi45MSAwLTYuMDgtLjM4LTktLjcgMS41MS0zLjc2IDEuMzUtOS4xMyAxLjgtMTUuMTMgMC0uMS4yLS40My4yOS0uNDUgMS0uMjUgNS45Mi0uOTEgNi41NS0uOTRhMy44MiAzLjgyIDAgMCAxIDEuMzcuMTJDMTIuMjQuOTMgMTMgMCAxMC40NSAwYy0uNTkgMC02IC40OS02Ljg5LjcyLTEgLjI2LS44OC43OS0xLjE1IDMuMTQtLjQ4IDYuOTEtLjUyIDguNy0xLjA2IDExLjE1cy0xIDIuNDEtLjc0IDIuODRhLjUzLjUzIDAgMCAwIC40MS4yOGMzLjA1LjIzIDYuNzIuNTMgOS44LjQ2YS4zNS4zNSAwIDAgMC0uMDEtLjdaIi8+PHBhdGggZmlsbD0iIzE5MTkxOSIgZD0iTTE1LjkxIDMuMjRjLjM2LjM0IDEgLjc5IDEuMiAxLjE3TDE3IDEwLjg4YS4zMS4zMSAwIDAgMCAuNjEgMGMwLS41NiAxLjA1LTUuOTIuNTMtNy0uMzYtLjY5LS40NC0uNDYtNC0zLjQ1YS4zNS4zNSAwIDAgMC0uNDMuNTRaIi8+PHBhdGggZmlsbD0iIzE5MTkxOSIgZD0iTTEyLjI0IDUuMjRjLjU0IDEgMi40LjYxIDMuNTkuMjggMi4xMS0uNTUgMS0xLjU4LjYyLTFhNi4zIDYuMyAwIDAgMS0zLjE5LjIxIDYuNjQgNi42NCAwIDAgMSAuMDktMi4xNGMuMDgtMS4xMy4wOS0xLjExLS4xLTEuMTctLjM5LS4xNy0uNS40Ni0uNjYgMS0uMi43Ni0uODIgMS44OC0uMzUgMi44MloiLz48L2c+PC9nPjwvZz48L3N2Zz4=;" parent="1" vertex="1">
          <mxGeometry x="650" y="203" width="24" height="24" as="geometry" />
        </mxCell>
        <mxCell id="JU8ZH0bHldErWSdaX4iS-10" value="" style="shape=image;verticalLabelPosition=bottom;labelBackgroundColor=default;verticalAlign=top;aspect=fixed;imageAspect=0;image=data:image/svg+xml,PHN2ZyB4bWxucz0iaHR0cDovL3d3dy53My5vcmcvMjAwMC9zdmciIHZpZXdCb3g9IjAgMCAyNCAyNCI+PGc+PHBhdGggZmlsbC1ydWxlPSJldmVub2RkIiBmaWxsPSIjMGM2ZmZmIiBkPSJNMTQuMjYgMTkuODRhMTAuMjMgMTAuMjMgMCAwIDAgNS0yIC4zMy4zMyAwIDAgMCAuMDgtLjQ3Yy0uMzMtLjQ4LS41Ni4yOC0yLjcxIDFhOC41OSA4LjU5IDAgMCAxLTIuNC40NGMtNS4xMy4zLTcuMDgtLjE0LTkuODYtMS40OS0uMjktLjI1LS40OC4zMy4wNi43OCAzLjczIDIuMjIgNS45MyAyLjEgOS44MyAxLjc0WiIvPjxwYXRoIGZpbGwtcnVsZT0iZXZlbm9kZCIgZmlsbD0iIzE5MTkxOSIgZD0iTTIxLjA2IDZhLjM0LjM0IDAgMCAwLS42OCAwcy4wOCA3LjA3LjA4IDcuNTRjMCAxLjA2LjIzIDUuODItLjM5IDYuNTMtMS43OSAyLjA4LTcuMTYgMy44LTEyLjkyIDIuMDVhOS4wOSA5LjA5IDAgMCAxLTIuODItMS4zM2MtMS0uODYtMS4wNi0xNS0xLTE2LjMzYTYuNCA2LjQgMCAwIDAgMi4wNCAxLjQzYzIuMjkgMS4wOCA1LjM3Ljg2IDcuOTEuNzcgMi43My0uMTIgNy44My0uOCA3Ljc4LTMuNTIgMC0xLjQ1LTIuMi0yLjcyLTMuNS0yLjdhLjM0LjM0IDAgMCAwIDAgLjY4YzEgMCAyLjcyIDEuMDcgMi43MSAyIDAgLjY0LS41OSAxLjMtMi4wOSAxLjhhMTYuMzYgMTYuMzYgMCAwIDEtNC45My42NmMtMi4xOS4wNS01LjQxLjItNy40LS43NC0xLjI3LS41OS0yLjYtMS4zNC0xLjU5LTIuMzFDNS4yIDIgNiAxLjExIDkuNzEuODRhNTUuNjEgNTUuNjEgMCAwIDEgNi40Ni4xLjI5LjI5IDAgMCAwIC4zNS0uMjNjLjA4LS4zNy0uMzktLjQtLjc3LS40NEMxNS42NS4yNiAxMS41MiAwIDkuNjcgMGExNC43NCAxNC43NCAwIDAgMC0zLjU5LjVjLTEuMzUuMzktMy40MiAxLjM0LTMuMyAyLjg0LS4zIDIuMjMgMCA0Ljk1LS4xMSA2LjQzYTg3LjY1IDg3LjY1IDAgMCAwIC4wNyA5LjQ4QTQuMjMgNC4yMyAwIDAgMCA0LjEgMjJhNi43OCA2Ljc4IDAgMCAwIDIuNzIgMS4yYzYuMjcgMS45MiAxMiAwIDE0LTIuNDkuOTctMS4xMS41NS00Ljk5LjI0LTE0LjcxWiIvPjxwYXRoIGZpbGwtcnVsZT0iZXZlbm9kZCIgZmlsbD0iIzBjNmZmZiIgZD0iTTE3LjgyIDE0LjZhNC42MyA0LjYzIDAgMCAwIDItMWMuNDQtLjUxIDAtLjg0LS4zNS0uNnMtLjEuMjMtMS44OS43OGMtNC4zOSAxLjM0LTExIC42Ny0xMy4zNi0uNTMtLjQxLS4yOC0uNTMuNDggMCAuNzQgMi42OSAxLjUgOC40NSAyLjUgMTMuNi42MVoiLz48cGF0aCBmaWxsLXJ1bGU9ImV2ZW5vZGQiIGZpbGw9IiMwYzZmZmYiIGQ9Ik03LjcyIDExYTI5LjkgMjkuOSAwIDAgMCA4Ljg0LS4zMSA3LjcxIDcuNzEgMCAwIDAgMi4zNS0uOTEuMzQuMzQgMCAxIDAtLjM2LS41N2MtMS44NyAxLjA4LTUuNDYuODYtNyAuODItMi4xMiAwLTUuMjguNTYtNy40My0xLjEyLS40My0uMTEtLjM2LjQ1LS4wNy44MiAxLjAxLjg5IDIuMzEuOTkgMy42NyAxLjI3WiIvPjwvZz48L3N2Zz4=;" parent="1" vertex="1">
          <mxGeometry x="497" y="288" width="24" height="24" as="geometry" />
        </mxCell>
        <mxCell id="JU8ZH0bHldErWSdaX4iS-11" value="" style="shape=image;verticalLabelPosition=bottom;labelBackgroundColor=default;verticalAlign=top;aspect=fixed;imageAspect=0;image=data:image/svg+xml,PHN2ZyB4bWxucz0iaHR0cDovL3d3dy53My5vcmcvMjAwMC9zdmciIHZpZXdCb3g9IjAgMCAyNCAyNCI+PGc+PHBhdGggZmlsbC1ydWxlPSJldmVub2RkIiBmaWxsPSIjMTkxOTE5IiBkPSJNMjEuNiAxNi4xOWE1LjY2IDUuNjYgMCAwIDAtLjI4LS44MiAzLjQ0IDMuNDQgMCAwIDAtLjM5LS41NSA0LjEzIDQuMTMgMCAwIDAtLjYtLjQ5IDEuMDcgMS4wNyAwIDAgMCAuMjQtLjI0IDMuMjIgMy4yMiAwIDAgMCAuMy0zLjA3IDIuNTMgMi41MyAwIDAgMC0yLjU5LTEuNiAzLjY0IDMuNjQgMCAwIDAtMS4yMS4zIDIuOTQgMi45NCAwIDAgMC0xIC43Ni4yOS4yOSAwIDAgMCAwIC40LjI3LjI3IDAgMCAwIC40IDAgMi4xIDIuMSAwIDAgMSAuODMtLjUgMi42OCAyLjY4IDAgMCAxIDEtLjEzIDEuNjkgMS42OSAwIDAgMSAxLjU4IDEuMTkgMi4yOCAyLjI4IDAgMCAxLS4xNiAyLjA3IDIuMSAyLjEgMCAwIDEtMS42Mi43MyAyLjMyIDIuMzIgMCAwIDEtMS43MS0uOS4zMi4zMiAwIDAgMC0uNS40MSAzLjA3IDMuMDcgMCAwIDAgMi4xNiAxLjM0IDMgMyAwIDAgMCAxLjU5LS4zYy4xNy4yMy4zMy40Ni40Ny42OWwuMjcuNDUuMjcuNDdjLjIuMzguMTUuNDUuNDQuNTNzLjU5LS40Ni41MS0uNzRaIi8+PHBhdGggZmlsbC1ydWxlPSJldmVub2RkIiBmaWxsPSIjMGM2ZmZmIiBkPSJNMjAuNzYgNC40N0ExMS4yMyAxMS4yMyAwIDAgMCAxMi40NC42M2ExMy4xMSAxMy4xMSAwIDAgMC03IDJBMTIuMSAxMi4xIDAgMCAwIC43OCA4LjIgMTEuMTUgMTEuMTUgMCAwIDAgMiAxOC41NiA5LjYgOS42IDAgMCAwIDExLjE3IDIzYS4yOS4yOSAwIDAgMCAuMjUtLjMyLjMuMyAwIDAgMC0uMzMtLjI1IDguOTMgOC45MyAwIDAgMS04LjQ5LTQuMjkgMTAuMjggMTAuMjggMCAwIDEtMS4yLTkuNDVBMTEuNjIgMTEuNjIgMCAwIDEgNiAzLjU3YTEyLjI5IDEyLjI5IDAgMCAxIDYuNDEtMS44NkExMC4yOCAxMC4yOCAwIDAgMSAyMCA1LjE3IDExLjQgMTEuNCAwIDAgMSAyMy4xIDEzYTkuODQgOS44NCAwIDAgMS0zLjEgNi42IDkuMzUgOS4zNSAwIDAgMS02LjU2IDMuMTMuMzIuMzIgMCAxIDAgMCAuNjQgMTAuMSAxMC4xIDAgMCAwIDcuMTItMy4yM0ExMS4zNiAxMS4zNiAwIDAgMCAyNCAxM2ExMi4xIDEyLjEgMCAwIDAtMy4yNC04LjUzWiIvPjxwYXRoIGZpbGwtcnVsZT0iZXZlbm9kZCIgZmlsbD0iIzE5MTkxOSIgZD0ibTIuOTEgMTYuNzYuNDctLjg1LjI3LS40NWMuMTQtLjIzLjMtLjQ2LjQ3LS42OWEzIDMgMCAwIDAgMS41OC4zIDMuMDYgMy4wNiAwIDAgMCAyLjE3LTEuMzQuMzIuMzIgMCAwIDAtLjUtLjQxIDIuMzIgMi4zMiAwIDAgMS0xLjcyLjlBMi4wNyAyLjA3IDAgMCAxIDQgMTMuNDlhMi4yOCAyLjI4IDAgMCAxLS4xNi0yLjA3IDEuNjggMS42OCAwIDAgMSAxLjU4LTEuMTkgMi43MiAyLjcyIDAgMCAxIDEgLjEzIDIuMDYgMi4wNiAwIDAgMSAuODIuNS4yOC4yOCAwIDAgMCAuNCAwIC4yOC4yOCAwIDAgMCAwLS40IDMgMyAwIDAgMC0xLS43NiAzLjUyIDMuNTIgMCAwIDAtMS4yLS4zQTIuNTMgMi41MyAwIDAgMCAyLjg5IDExYTMuMjQgMy4yNCAwIDAgMCAuMjkgMy4wNyAxLjc5IDEuNzkgMCAwIDAgLjI0LjI0IDQgNCAwIDAgMC0uNTkuNDkgMy41IDMuNSAwIDAgMC0uNC41NWMtLjEuMi0uMi43OC0uMjcgMXMuNTUuNzkuNzUuNDFaIi8+PHBhdGggZmlsbC1ydWxlPSJldmVub2RkIiBmaWxsPSIjMTkxOTE5IiBkPSJNMTQuMyAxNXEuMTguMjcuMzMuNTRjLjExLjE4LjIyLjM3LjMyLjU2YTkuNTcgOS41NyAwIDAgMSAuNjEgMS40NS4zMi4zMiAwIDAgMCAuMzguMjYuMzMuMzMgMCAwIDAgLjI1LS4zOCA3LjYyIDcuNjIgMCAwIDAtLjMtMS43MiA0LjEyIDQuMTIgMCAwIDAtLjMxLS43MSAzLjU3IDMuNTcgMCAwIDAtLjQ2LS42NCA0LjcxIDQuNzEgMCAwIDAtLjgzLS42OCAzLjQgMy40IDAgMCAwIC45NC0yLjY4IDMuMTMgMy4xMyAwIDAgMC0zLjE0LTMuMTIgMy4zOSAzLjM5IDAgMCAwLTMuNDkgMy4yIDIuOSAyLjkgMCAwIDAgMS42NCAyLjcgNi43OSA2Ljc5IDAgMCAwLTEuMTguNzcgNC43NCA0Ljc0IDAgMCAwLS45MSAxQTMgMyAwIDAgMCA3LjcxIDE4YS4zMi4zMiAwIDEgMCAuNjMtLjA5IDIuMzkgMi4zOSAwIDAgMSAuNC0xLjI5IDcuNTIgNy41MiAwIDAgMSAuODUtMWMuNDgtLjU0Ljk1LTEuMDcgMS40LTEuNDhhNC40NSA0LjQ1IDAgMCAwIC45My4xMi4yOC4yOCAwIDAgMCAuMy0uMjYuMjkuMjkgMCAwIDAtLjIyLS40IDIuMzYgMi4zNiAwIDAgMS0yLjQzLTIuNDdBMi40MyAyLjQzIDAgMCAxIDEyLjEyIDlhMi4xNyAyLjE3IDAgMCAxIDIuMjEgMi4xMSAyLjI1IDIuMjUgMCAwIDEtMS43NyAyLjY2LjMyLjMyIDAgMSAwIC4wOC42NCAyLjcgMi43IDAgMCAwIDEtLjI5IDcuNDYgNy40NiAwIDAgMSAuNjYuODhaIi8+PC9nPjwvc3ZnPg==;" parent="1" vertex="1">
          <mxGeometry x="358" y="203" width="24" height="24" as="geometry" />
        </mxCell>
        <mxCell id="JU8ZH0bHldErWSdaX4iS-12" value="" style="shape=image;verticalLabelPosition=bottom;labelBackgroundColor=default;verticalAlign=top;aspect=fixed;imageAspect=0;image=data:image/svg+xml,PHN2ZyB4bWxucz0iaHR0cDovL3d3dy53My5vcmcvMjAwMC9zdmciIHZpZXdCb3g9IjAgMCAyNCAyNCI+PGc+PHBhdGggZmlsbC1ydWxlPSJldmVub2RkIiBmaWxsPSIjMTkxOTE5IiBkPSJNNy42MSAxMC43MUE2LjU2IDYuNTYgMCAwIDEgMTMuMzMgOWE0LjIgNC4yIDAgMCAxIDIuNzUgMS4yNS4zMy4zMyAwIDEgMCAuNDgtLjQ1IDUuNDQgNS40NCAwIDAgMC0yLjExLTEuNTRjNC4yMy0yLjEzIDIuNzUtOC40NC0yLTguMjFDNiAuNDggNi4xMyA2LjkxIDkuNDQgOC40YTYuMzcgNi4zNyAwIDAgMC0yLjMxIDIgLjI5LjI5IDAgMCAwIC40OC4zMVptLjczLTQuNmMtLjc1LTIuNTYuNjktNC44IDQuMjMtNSAzLjczLS4zIDUuMDUgNS4xOC44NiA2LjgyQTUuODkgNS44OSAwIDAgMCAxMC41IDhhMi43MyAyLjczIDAgMCAxLTIuMTYtMS44OVoiLz48cGF0aCBmaWxsLXJ1bGU9ImV2ZW5vZGQiIGZpbGw9IiMxOTE5MTkiIGQ9Ik0xMy41NSA1LjA3Yy0uNDYgMC0uMDkuNTMtLjkzLjc4YTEuMzcgMS4zNyAwIDAgMS0xLjQ4LS42MmMtLjM1LS41My0xLS4xNS0uMTggMS4xOWExLjczIDEuNzMgMCAwIDAgMi42OC0uMTNjLjQzLS41NS40OS0xLjI5LS4wOS0xLjIyWiIvPjxwYXRoIGZpbGwtcnVsZT0iZXZlbm9kZCIgZmlsbD0iIzE5MTkxOSIgZD0iTTExLjQ2IDRjLjQxIDAgLjQxLS41Mi4yMy0uOTEtLjMxLS42Ni0xLjQ1LS42Ny0yLjExLS4xNi0xIC43Ni0uNjkgMS42Ny0uMyAxLjYzYTEuMzYgMS4zNiAwIDAgMSAxLTEuMTNjMS4wNy0uNDMuNi41NyAxLjE4LjU3WiIvPjxwYXRoIGZpbGwtcnVsZT0iZXZlbm9kZCIgZmlsbD0iIzE5MTkxOSIgZD0iTTEyLjM1IDMuODJjLjA1IDAgLjEuMDguMTguMDhzLjc0LS45NCAxLjMtLjQ1Yy4zOC4zNC4yMi44Ny41OS44N2EuMzMuMzMgMCAwIDAgLjMzLS4zMiAxLjMyIDEuMzIgMCAwIDAtMi0xLjI5Yy0uMDkuMDgtLjQ4LjQ3LS41MS43cy0uMDMuMzIuMTEuNDFaIi8+PHBhdGggZmlsbC1ydWxlPSJldmVub2RkIiBmaWxsPSIjMTkxOTE5IiBkPSJNMjMuMTMgMTEuMzZjLS4xMi0xLS42LTEuMzctMS4zOC0xLjMzcy0xLjMzLjI1LTcuNTkgMi4xYTYuMjcgNi4yNyAwIDAgMS0yLjM0LjUyYy0yLjMyLS4zNy00LjU1LTEtNi45My0xLjM0LTEuMi0uMTgtMy0uNzctMy4zMy0uNDZhLjMzLjMzIDAgMCAwIC4zMi41N3MuMSAwIC4xNiAwYy41OC4wNyA5LjMyIDIgOS42NiAyLjA2YTQ4LjY5IDQ4LjY5IDAgMCAwLS4yOSA4Ljg4LjMzLjMzIDAgMSAwIC42NiAwIDQxLjE3IDQxLjE3IDAgMCAwIC4yOC04Ljg3Yy45NC0uMDcgOC43Mi0yLjU2IDkuNjUtMi40M2E4Ljg4IDguODggMCAwIDEgMCAyLjNjLS4xNiA1LjEuMTggNS43NS0uNzIgNi4yMUE5OS4zMyA5OS4zMyAwIDAgMSAxMS42OSAyM2E1NC44NyA1NC44NyAwIDAgMS04LjE0LTIuMTMgMTAuMDkgMTAuMDkgMCAwIDEtMS43Mi0uOTQgMy43OCAzLjc4IDAgMCAxLS4yNC0xLjQ1YzAtLjM2LS4xNiAxLjUxLjI5LTYuNWEuMjkuMjkgMCAwIDAtLjU4IDBjLS40MSA1LjM5LS42NSA3LS4xOCA4LjIzLjE1LjM5LjcuNTkgMSAuNzlBMTYuNSAxNi41IDAgMCAwIDYgMjIuNTMgMzcgMzcgMCAwIDAgMTEuNjQgMjRjLjM2LjA2IDEwLjE4LTIuOTQgMTAuOTEtNHMuNS0zLjM4LjUtNC41NmMuMDEtLjI3LjExLTMuNzcuMDgtNC4wOFoiLz48cGF0aCBmaWxsLXJ1bGU9ImV2ZW5vZGQiIGZpbGw9IiMwYzZmZmYiIGQ9Ik01Ljg3IDE0LjI0Yy4xNC0uNjUtMi41Mi0xLjMzLTIuNzEtLjgzIDAgLjA5LS4xMS4xOCAwIC4zLjE0LjQgMi43MSAxLjM1IDIuNzEuNTNaIi8+PHBhdGggZmlsbC1ydWxlPSJldmVub2RkIiBmaWxsPSIjMGM2ZmZmIiBkPSJNNS40OSAxNi4yNWMuMTQtLjY0LTIuNTItMS4zMy0yLjcxLS44MyAwIC4wOS0uMTEuMTkgMCAuMy4xNC40IDIuNzEgMS4zNSAyLjcxLjUzWiIvPjxwYXRoIGZpbGwtcnVsZT0iZXZlbm9kZCIgZmlsbD0iIzBjNmZmZiIgZD0iTTUuNDkgMTkuMThjLjE0LS42NC0yLjUyLTEuMzMtMi43MS0uODMgMCAuMDktLjExLjE5IDAgLjMuMTQuNCAyLjcxIDEuMzUgMi43MS41M1oiLz48cGF0aCBmaWxsLXJ1bGU9ImV2ZW5vZGQiIGZpbGw9IiMwYzZmZmYiIGQ9Ik05LjYzIDIwLjM2Yy4xNS0uNjQtMi41Mi0xLjMyLTIuNy0uODMgMCAuMDktLjEyLjE5IDAgLjMuMTMuNCAyLjcgMS4zNSAyLjcuNTNaIi8+PHBhdGggZmlsbC1ydWxlPSJldmVub2RkIiBmaWxsPSIjMTkxOTE5IiBkPSJNNy43IDE1WiIvPjxwYXRoIGZpbGwtcnVsZT0iZXZlbm9kZCIgZmlsbD0iIzE5MTkxOSIgZD0iTTEwLjYxIDE1LjEyYTEuNjMgMS42MyAwIDAgMCAwLS40OGMtLjI1LS43NC0xLjI4LS4yOS0yLS4zNC0xLjQ3LS4xMS0xLjM4LjA5LTEuNjIgMS4zMy0uMTEuNTItLjYxIDEuMjMtLjI1IDEuODJhNSA1IDAgMCAwIDMuNDMuNDEuNzguNzggMCAwIDAgLjM4LS41MSAxMi41MSAxMi41MSAwIDAgMCAuMDYtMi4yM1ptLTEgMS43OGMtLjM5LjA5LTEuNTgtLjA5LTIgMGEyLjIyIDIuMjIgMCAwIDAgLjA5LTEuNzkgMS44NiAxLjg2IDAgMCAxIC44MSAwIDEwIDEwIDAgMCAwIDEuMTMgMGwtLjEzIDEuMjZjLS4wMS4wNS4wNy4zNC4wNy41M1oiLz48cGF0aCBmaWxsLXJ1bGU9ImV2ZW5vZGQiIGZpbGw9IiMxOTE5MTkiIGQ9Ik0xMy4xNCAxNi42OWEuNjQuNjQgMCAwIDAgLjQ4LjUzYy43OC4yMiA3LTEuNiA3LjQ4LTIuMDdhMS4xOSAxLjE5IDAgMCAwIC4yNC0uNzggMTAuOTQgMTAuOTQgMCAwIDAtLjE5LTEuNzZjLS4yNC0uOTQtMS40OC0uMTgtNi4xOSAxLjEzLS4xMiAwLS42NC4xMi0uODUuMTktMS4xNy40LS44Ni42NC0uODggMS40Ny0uMDIuMDgtLjExIDEuMi0uMDkgMS4yOVptMS0yLjA3Yy40NiAwIDQuNDEtMSA2LTEuMzNhOC41NSA4LjU1IDAgMCAxIC4wNSAxLjFjLTYgMi02LjA5IDIuMDktNi4zMiAyLjEuMjUtLjI4LS4zOC0xLjg3LjI2LTEuODdaIi8+PHBhdGggZmlsbC1ydWxlPSJldmVub2RkIiBmaWxsPSIjMGM2ZmZmIiBkPSJNMTcuMzcgMThjLTQgLjkxLTMuNjQgMS4wNy0zLjYzIDEuMmEuMjkuMjkgMCAwIDAgLjMxLjI3YzIuMDUuMjQgMi4xLS4yIDMuNDgtLjgzYS4zMy4zMyAwIDAgMC0uMTYtLjY0WiIvPjxwYXRoIGZpbGwtcnVsZT0iZXZlbm9kZCIgZmlsbD0iIzBjNmZmZiIgZD0iTTE4Ljc3IDE3Ljc3YzAgLjQxLjkuNTUgMS40NC4yNXMuNjEtLjM2LjY2LS40NC4wNS0uMzcgMC0uNDdjLS4yLS42Mi0yLjA4LjMxLTIuMS42NloiLz48L2c+PC9zdmc+;" parent="1" vertex="1">
          <mxGeometry x="357" y="288" width="24" height="24" as="geometry" />
        </mxCell>
        <mxCell id="JU8ZH0bHldErWSdaX4iS-13" value="" style="shape=image;verticalLabelPosition=bottom;labelBackgroundColor=default;verticalAlign=top;aspect=fixed;imageAspect=0;image=data:image/svg+xml,PHN2ZyB4bWxucz0iaHR0cDovL3d3dy53My5vcmcvMjAwMC9zdmciIHZpZXdCb3g9IjAgMCAyNCAyNCI+PGc+PHBhdGggZmlsbC1ydWxlPSJldmVub2RkIiBmaWxsPSIjMTkxOTE5IiBkPSJNMTMuNDIgMTQuMTlhMi4xMyAyLjEzIDAgMCAwLS4zOC0xIDIuMzggMi4zOCAwIDAgMC0uNjMtLjU1IDQuNDggNC40OCAwIDAgMC0xLS40MyAxMC44OSAxMC44OSAwIDAgMC0yLjUyLS40IDEwLjI4IDEwLjI4IDAgMCAwLTEuNzcuMWwuMDctMS4yMWMwLS4xMy0uMi0uODggMC0uODN2LjA5Yy4yLS4yMS42NS0uMjcgMS0uNDRhMi4yMiAyLjIyIDAgMCAwIC4zNS0uMjUgMi41MSAyLjUxIDAgMCAwIC43Ni0yIDIuNDYgMi40NiAwIDAgMC0xLjE3LTEuOSAyLjMzIDIuMzMgMCAwIDAtMi42MS4xIDIuOCAyLjggMCAwIDAtMS4yOCAyLjE1QTEuOTMgMS45MyAwIDAgMCA0Ljc2IDlhMy4zOSAzLjM5IDAgMCAwIDEuNTcuOWMwIC4yNy4wNi42Ni4wNy43OFYxMmMtLjI4LjA3LS4zNyAwLTEuMzEuMDlhMTcuOTIgMTcuOTIgMCAwIDAtMiAuMyA1LjQ5IDUuNDkgMCAwIDAtMS42MS40OCAyLjI4IDIuMjggMCAwIDAtLjg4Ljg5IDUgNSAwIDAgMC0uNTMgMS43NEEyMi41MSAyMi41MSAwIDAgMCAwIDE4LjA3YTExLjQ1IDExLjQ1IDAgMCAwIC4xNCAyLjM3QTMgMyAwIDAgMCAxIDIyYTQuNDIgNC40MiAwIDAgMCAyLjI2IDEuMDggMTcuNSAxNy41IDAgMCAwIDMuNDYuMWMuNzUgMCAxLjQ5IDAgMi4yMy0uMDZhMTEuNDggMTEuNDggMCAwIDAgMS40OS0uMTIgNS41IDUuNSAwIDAgMCAuNzUtLjE5IDQgNCAwIDAgMCAuNTItLjIxIDMuMjYgMy4yNiAwIDAgMCAxLjU5LTIuMzkgMjAuMjcgMjAuMjcgMCAwIDAgLjEtMy44NSAxMi41OCAxMi41OCAwIDAgMCAuMDItMi4xN1pNNS40OCA4LjczYTEuMjYgMS4yNiAwIDAgMS0uMzktMS4wNiAxLjg5IDEuODkgMCAwIDEgMS0xLjMyIDEuMzIgMS4zMiAwIDAgMSAxLjQ0LS4wNyAxLjQ0IDEuNDQgMCAwIDEgLjYyIDEuMDcgMS41MyAxLjUzIDAgMCAxLS4zOCAxLjIyIDQuNDkgNC40OSAwIDAgMS0uOTQuNTMgMS41MyAxLjUzIDAgMCAwLS4zLjI1IDMuMDYgMy4wNiAwIDAgMS0xLjA1LS42MlptNyA3LjU3YTIwLjQxIDIwLjQxIDAgMCAxLS4xNiAzLjcgMi4yNiAyLjI2IDAgMCAxLTEuMTEgMS42NSAyIDIgMCAwIDEtLjQ1LjE3IDQuODcgNC44NyAwIDAgMS0uNTIuMTIgMTEuMTcgMTEuMTcgMCAwIDEtMS4zOS4xNmMtLjcyIDAtMS40NCAwLTIuMTguMDVhMTYuMTMgMTYuMTMgMCAwIDEtMy4yNS0uMDcgMy4zOCAzLjM4IDAgMCAxLTEuNzQtLjc5IDIgMiAwIDAgMS0uNTYtMS4wNSAxMC4xNiAxMC4xNiAwIDAgMS0uMTgtMi4xNiAyMi4zNSAyMi4zNSAwIDAgMSAwLTIuNDYgNC4wNSA0LjA1IDAgMCAxIC4zOS0xLjQ3IDEuNDUgMS40NSAwIDAgMSAuNTYtLjYxIDQuNjYgNC42NiAwIDAgMSAxLjM4LS40NSAxNi41MiAxNi41MiAwIDAgMSAxLjkyLS4zNWwzLjY0LS4yMmExMC4yNiAxMC4yNiAwIDAgMSAyLjMzLjQzIDQuMDcgNC4wNyAwIDAgMSAuNzIuMyAxLjU3IDEuNTcgMCAwIDEgLjUyLjQ0IDEuNjEgMS42MSAwIDAgMSAuMjIuOSAxNyAxNyAwIDAgMS0uMTMgMS43MVoiLz48cGF0aCBmaWxsLXJ1bGU9ImV2ZW5vZGQiIGZpbGw9IiMwYzZmZmYiIGQ9Ik04LjkyIDE4Ljc5YTQgNCAwIDAgMS0yIC41MWgtLjYxYTQuMyA0LjMgMCAwIDEtMS41NS0uMy4yOS4yOSAwIDAgMC0uMjkuNSA0LjMyIDQuMzIgMCAwIDAgMS42Mi44NiAyLjgyIDIuODIgMCAwIDAgLjgyLjA3IDMuMTEgMy4xMSAwIDAgMCAuOC0uMTMgNC4yMSA0LjIxIDAgMCAwIDEuNTktLjk0LjMyLjMyIDAgMCAwIC4wNy0uNDYuMzMuMzMgMCAwIDAtLjQ1LS4xMVoiLz48cGF0aCBmaWxsLXJ1bGU9ImV2ZW5vZGQiIGZpbGw9IiMwYzZmZmYiIGQ9Ik01LjA5IDE1LjgyYTEuMTcgMS4xNyAwIDAgMC0xLjctLjUxLjM2LjM2IDAgMCAwLS4xNS4xNSAxLjE5IDEuMTkgMCAwIDAtLjI0LjM2IDEuMSAxLjEgMCAwIDAgMCAuOCAxLjE4IDEuMTggMCAwIDAgLjYuNjMgMSAxIDAgMCAwIDEtLjA2IDEuMDggMS4wOCAwIDAgMCAuNDktMS4zN1oiLz48cGF0aCBmaWxsLXJ1bGU9ImV2ZW5vZGQiIGZpbGw9IiMwYzZmZmYiIGQ9Ik05IDE1LjA5YS4zMS4zMSAwIDAgMC0uMi4yMyAxLjUyIDEuNTIgMCAwIDAtLjI1LjI2LjkuOSAwIDAgMC0uMTQuNDcgMSAxIDAgMCAwIC40OS44NyAxIDEgMCAwIDAgMS4wNiAwIDEgMSAwIDAgMCAuMzEtMS40NEExIDEgMCAwIDAgOSAxNS4wOVoiLz48cGF0aCBmaWxsLXJ1bGU9ImV2ZW5vZGQiIGZpbGw9IiMxOTE5MTkiIGQ9Ik0yMy44NiAyLjQ5YS4zMy4zMyAwIDEgMC0uNjUgMCAxOCAxOCAwIDAgMS0uMSAyLjczIDkuMjUgOS4yNSAwIDAgMS0uNjQgMi41NiA1IDUgMCAwIDEtLjg1IDEuNDFBMTQuNjYgMTQuNjYgMCAwIDEgMTkuNjggMTFhMTUuMiAxNS4yIDAgMCAxLTEuNDEgMS4xIDcgNyAwIDAgMS0uODUuNDdBMTUuMTUgMTUuMTUgMCAwIDEgMTUuMTQgMTFhNy4xNSA3LjE1IDAgMCAxLTEuNzQtMi4xNyA1LjQ5IDUuNDkgMCAwIDEtLjQ5LTEuNTggMjMuODMgMjMuODMgMCAwIDEtLjI1LTIuNjljMC0uNjQtLjExLTEuMjctLjE0LTEuOTF2LS42NmE1LjggNS44IDAgMCAwIDEuNzYuNzYgNC4xMSA0LjExIDAgMCAwIDIuMS0uMTIgMi41NiAyLjU2IDAgMCAwIC41NS0uMjdjLjE4LS4xMi4zNC0uMjcuNTItLjM5LjExLjA3LjI2LjEzLjI4LjE1YTcuMjIgNy4yMiAwIDAgMCAuNzguNDEgNy41OCA3LjU4IDAgMCAwIC44LjI4IDQuNjIgNC42MiAwIDAgMCAyLjI3LjEgNi43IDYuNyAwIDAgMCAyLS43OS4zMi4zMiAwIDAgMCAuMTMtLjQ0LjMzLjMzIDAgMCAwLS40NC0uMTQgNS40IDUuNCAwIDAgMS0xLjg1LjU1IDMuODYgMy44NiAwIDAgMS0xLjgzLS4yM2MtLjI3LS4xLS41NC0uMjMtLjgxLS4zNnMtLjMzLS4xOS0uNDktLjMtLjI5LS4yNy0uNDEtLjM1YS42LjYgMCAwIDAtLjU2LS4wN0ExLjkgMS45IDAgMCAwIDE3IDFhNS4yMyA1LjIzIDAgMCAxLS45NC42NSAzLjE3IDMuMTcgMCAwIDEtMiAuMTggNyA3IDAgMCAxLTItLjg5LjI5LjI5IDAgMCAwLS40LjA4LjMuMyAwIDAgMCAuMDguNGwuMjguMTljMCAuMzYtLjA3LjcxLS4wOCAxLjA3IDAgLjYzIDAgMS4yNy0uMDYgMS45MmExNyAxNyAwIDAgMCAuMDcgMi44NCA1LjQ3IDUuNDcgMCAwIDAgLjYxIDEuOTIgNy4zNyA3LjM3IDAgMCAwIDEuNjQgMS45NCAxNC4xNCAxNC4xNCAwIDAgMCAzLjExIDIgLjMuMyAwIDAgMCAuMyAwIDYuNTEgNi41MSAwIDAgMCAxLjEyLS40OCAxNS4yNyAxNS4yNyAwIDAgMCAxLjYtMUExMi4zOCAxMi4zOCAwIDAgMCAyMi40NCAxMGE1LjQ1IDUuNDUgMCAwIDAgMS0xLjczQTkuMSA5LjEgMCAwIDAgMjQgNS45MWExNy42NSAxNy42NSAwIDAgMC0uMTQtMy40MloiLz48cGF0aCBmaWxsLXJ1bGU9ImV2ZW5vZGQiIGZpbGw9IiMwYzZmZmYiIGQ9Ik0xNC4zMyA3LjQxQTQuODIgNC44MiAwIDAgMCAxNiA5LjYyYy4xMi4xLjU2LjU1Ljg3Ljc3YTEuMSAxLjEgMCAwIDAgLjUzLjIyIDEuMzggMS4zOCAwIDAgMCAuNjgtLjE1QTcuNTIgNy41MiAwIDAgMCAxOSA5LjlhNC44MSA0LjgxIDAgMCAwIDItMi4xOCA2LjU3IDYuNTcgMCAwIDAgLjM5LTIuMzNoLjE3YS4zMi4zMiAwIDAgMCAuMi0uMzkuMzIuMzIgMCAwIDAtLjM3LS4yNyA0LjUyIDQuNTIgMCAwIDEtMS4yOC0uMDYgMyAzIDAgMCAxLTEuMTEtLjVsLS41OS0uNTZzLS4yMi0uMjktLjMxLS4zOWEuNTkuNTkgMCAwIDAtLjU3LS4yMiAxIDEgMCAwIDAtLjQuMjNjLS4xOS4xNy0uMzguNS0uNTUuNjFhMi44NyAyLjg3IDAgMCAxLTEgLjQ2IDcuMjUgNy4yNSAwIDAgMS0xLjI1LjE0LjI3LjI3IDAgMCAwLS4yOS4yNy4yOC4yOCAwIDAgMCAuMjMuMjkgNS4yOCA1LjI4IDAgMCAwIC4wNiAyLjQxWk0xNiA1LjFhMy44MSAzLjgxIDAgMCAwIDEuMTUtLjM1IDEuODggMS44OCAwIDAgMCAuNDktLjM5di4wOGEyIDIgMCAwIDAgLjM3LjI4IDQgNCAwIDAgMCAuNDguMzIgMy45MSAzLjkxIDAgMCAwIDEuNTEuNDVoLjYyYTUuNTcgNS41NyAwIDAgMS0uNDggMS44N0EzLjkxIDMuOTEgMCAwIDEgMTguNCA5bC0uNjEuMzhjLS40NS4yOS0xLjE3LS41OC0xLjE3LS41OGE0IDQgMCAwIDEtMS41MS0xLjY2IDQuNTUgNC41NSAwIDAgMS0uMjctMkE1Ljg4IDUuODggMCAwIDAgMTYgNS4xWiIvPjwvZz48L3N2Zz4=;" parent="1" vertex="1">
          <mxGeometry x="362" y="369" width="24" height="24" as="geometry" />
        </mxCell>
        <mxCell id="JU8ZH0bHldErWSdaX4iS-14" value="" style="shape=image;verticalLabelPosition=bottom;labelBackgroundColor=default;verticalAlign=top;aspect=fixed;imageAspect=0;image=data:image/svg+xml,PHN2ZyB4bWxucz0iaHR0cDovL3d3dy53My5vcmcvMjAwMC9zdmciIHZpZXdCb3g9IjAgMCAyNCAyNCI+PGc+PHBhdGggZmlsbC1ydWxlPSJldmVub2RkIiBmaWxsPSIjMTkxOTE5IiBkPSJNMTAuNDUgMTAuODdhLjMyLjMyIDAgMCAwLS4zNy0uNTNjLS40LjE5LS44LjM2LTEuMTguNThhNy43NSA3Ljc1IDAgMCAwLS43Ni41MSA0LjgyIDQuODIgMCAwIDAtLjQyLjM1LjguOCAwIDAgMC0uMjMuNDUuODQuODQgMCAwIDAgLjI3LjY4IDUuMTMgNS4xMyAwIDAgMCAxIC41N2wuNzkuM2EuMzcuMzcgMCAwIDAgLjQ2LS4yNC4zNy4zNyAwIDAgMC0uMjMtLjQ2bC0uNTItLjM3cy0uMjQtLjE3LS40LS4yOWwuMTQtLjA3WiIvPjxwYXRoIGZpbGwtcnVsZT0iZXZlbm9kZCIgZmlsbD0iIzE5MTkxOSIgZD0iTTExLjc3IDExLjFjLS4xNC4zNi0uMjcuNzItLjM4IDEuMDktLjI0Ljg1LS4zOSAxLjcyLS42NCAyLjU2YS4zNi4zNiAwIDAgMCAuMi40OC4zOC4zOCAwIDAgMCAuNDgtLjIxYy4yOS0uNTcuNTYtMS4xNS44LTEuNzVzLjQzLTEuMTYuNjgtMS43M2wxLTIuODJhLjMzLjMzIDAgMCAwLS4xNy0uNDMuMzIuMzIgMCAwIDAtLjQyLjE3Yy0uMzYuNjEtLjc2IDEuMTgtMS4xIDEuOGE4LjE2IDguMTYgMCAwIDAtLjQ1Ljg0WiIvPjxwYXRoIGZpbGwtcnVsZT0iZXZlbm9kZCIgZmlsbD0iIzE5MTkxOSIgZD0iTTE0LjIyIDEzLjIxYS4zNy4zNyAwIDAgMC0uMTEuNTEuMzYuMzYgMCAwIDAgLjUuMTFsLjg3LS4zOGEzIDMgMCAwIDAgLjU5LS4zMiAyLjM4IDIuMzggMCAwIDAgLjM4LS4zMiAyLjM1IDIuMzUgMCAwIDAgLjI3LS4zOS42My42MyAwIDAgMC0uMDgtLjYzIDIuNTcgMi41NyAwIDAgMC0uNjQtLjU5IDkuOCA5LjggMCAwIDAtMS42MS0uNjQuMzQuMzQgMCAwIDAtLjQ1LjExLjMzLjMzIDAgMCAwIC4xMi40NWwuOTIuNzRhMy4wOSAzLjA5IDAgMCAxIC4zOS4zM2wtLjQuNDJaIi8+PHBhdGggZmlsbC1ydWxlPSJldmVub2RkIiBmaWxsPSIjMTkxOTE5IiBkPSJNMTAuNzUgMS42OHYuMDYtLjA2WiIvPjxwYXRoIGZpbGwtcnVsZT0iZXZlbm9kZCIgZmlsbD0iIzE5MTkxOSIgZD0iTTEwLjc2IDIyLjMydi0uMDYuMDZaIi8+PHBhdGggZmlsbC1ydWxlPSJldmVub2RkIiBmaWxsPSIjMTkxOTE5IiBkPSJNMTguOTIgMy41NmgtLjA2LjA3WiIvPjxwYXRoIGZpbGwtcnVsZT0iZXZlbm9kZCIgZmlsbD0iIzE5MTkxOSIgZD0iTTUuNzQgMy41aC4wNy0uMDZaIi8+PHBhdGggZmlsbC1ydWxlPSJldmVub2RkIiBmaWxsPSIjMTkxOTE5IiBkPSJNMjMuODIgMTAuMmEyLjIzIDIuMjMgMCAwIDAtLjI0LS42Mi44NS44NSAwIDAgMC0uNC0uMzYgMi4yOSAyLjI5IDAgMCAwLS44Ny0uMTJjLS4zNSAwLS43MS4xLTEgLjE2YTQuMzIgNC4zMiAwIDAgMCAwLS44OCAyLjgxIDIuODEgMCAwIDAtLjEyLS40OCAyLjM0IDIuMzQgMCAwIDAtLjI0LS40NEEyLjE4IDIuMTggMCAwIDAgMjAuNCA3YTcuODMgNy44MyAwIDAgMCAxLjE4LS45MSAxLjMgMS4zIDAgMCAwIC40My0xIDEuMjYgMS4yNiAwIDAgMC0uMTQtLjM2IDQuMjQgNC4yNCAwIDAgMC0uNDMtLjUyIDYuNTEgNi41MSAwIDAgMC0xLjY2LTEuNDcgMi4xNSAyLjE1IDAgMCAwLS42MS0uMjYuNzUuNzUgMCAwIDAtLjU0IDAgMi4xNiAyLjE2IDAgMCAwLS43LjUzYy0uMi4yNC0uMzkuNTEtLjU2Ljc2YTQuNDkgNC40OSAwIDAgMC0xLS43OCAzIDMgMCAwIDAtLjU1LS4yMyAyLjIzIDIuMjMgMCAwIDAtLjU3LS4xMiAzLjc4IDMuNzggMCAwIDAtLjkgMCA1LjExIDUuMTEgMCAwIDAgLjEzLTEuMTFBMS4zMSAxLjMxIDAgMCAwIDE0IC42YS44OS44OSAwIDAgMC0uMzQtLjE1QTQuODkgNC44OSAwIDAgMCAxMyAuMzhhNi43NCA2Ljc0IDAgMCAwLTEuMSAwIDggOCAwIDAgMC0xLjEuMTQgMi4xMiAyLjEyIDAgMCAwLS42Mi4yNC45My45MyAwIDAgMC0uMzcuNEEyLjMgMi4zIDAgMCAwIDkuNyAyYzAgLjM2LjEuNzQuMTYgMS4wOGE0LjI0IDQuMjQgMCAwIDAtLjg3IDAgMi4yMSAyLjIxIDAgMCAwLS41LjE1IDIgMiAwIDAgMC0uNDkuMjkgNCA0IDAgMCAwLS41Mi40OCAxMi43IDEyLjcgMCAwIDAtLjc1LTFBMi4xNiAyLjE2IDAgMCAwIDYgMi40OGEuODEuODEgMCAwIDAtLjU0IDAgMi4zMiAyLjMyIDAgMCAwLS42MS4yNyA3LjE2IDcuMTYgMCAwIDAtLjkuNjYgNy4zNyA3LjM3IDAgMCAwLS43Ny44MSA1LjQ5IDUuNDkgMCAwIDAtLjQyLjUyIDEuMjYgMS4yNiAwIDAgMC0uMTQuMzYgMS4zMiAxLjMyIDAgMCAwIC40MiAxIDcuNzUgNy43NSAwIDAgMCAxIC43OCA1LjIzIDUuMjMgMCAwIDAtLjQ5LjQ1IDIuMDcgMi4wNyAwIDAgMC0uMjcuNDUgMi4yNyAyLjI3IDAgMCAwLS4xNy41IDQuNjMgNC42MyAwIDAgMC0uMDggMS4xMyAxMi4zOSAxMi4zOSAwIDAgMC0xLjM3LS4yMSAyLjEyIDIuMTIgMCAwIDAtLjg3LjExLjgzLjgzIDAgMCAwLS40LjM3IDIuMTIgMi4xMiAwIDAgMC0uMjQuNjJBNi42MyA2LjYzIDAgMCAwIDAgMTEuMzhhNi44MyA2LjgzIDAgMCAwIDAgMS4xMSA0LjYzIDQuNjMgMCAwIDAgLjA3LjY3IDEgMSAwIDAgMCAuMTUuMzUgMS4yOSAxLjI5IDAgMCAwIDEgLjQyIDYuOCA2LjggMCAwIDAgMS4zMy0uMTcgMy43NSAzLjc1IDAgMCAwIDAgLjc1IDMuMjMgMy4yMyAwIDAgMCAuMTQuNTEgMy41OCAzLjU4IDAgMCAwIC4zMS40OCA1Ljc4IDUuNzggMCAwIDAgLjYyLjgzYy0uMzMuMjMtLjc3LjUyLTEuMTMuODJhMi4xNiAyLjE2IDAgMCAwLS41My43LjgyLjgyIDAgMCAwIDAgLjU0IDIuMTggMi4xOCAwIDAgMCAuMjcuNjEgNy4xNiA3LjE2IDAgMCAwIC42Ni45IDcuMzcgNy4zNyAwIDAgMCAuODEuNzcgNS40OSA1LjQ5IDAgMCAwIC41Mi40MiAxIDEgMCAwIDAgLjM2LjE0IDEuMjkgMS4yOSAwIDAgMCAxLS40MiA2LjY2IDYuNjYgMCAwIDAgLjc5LTEgMy40NyAzLjQ3IDAgMCAwIC41NS42IDIuNDMgMi40MyAwIDAgMCAxIC40NCA0LjMyIDQuMzIgMCAwIDAgMS4yNC4wOC4zNy4zNyAwIDAgMCAuNDEtLjMyLjM4LjM4IDAgMCAwLS4zMy0uNCA3LjUzIDcuNTMgMCAwIDEtLjk1LS40NmMtLjIxLS4xLS40LS4yMS0uNjItLjMtMS40NS0uNjEtMS40NS0uNjktMS42Ny0uNDVzLS40Ni41MS0uNzkuODNhMS41MyAxLjUzIDAgMCAxLS40My4zNWMuMDYtLjE0LS4zLS4zMS0uMzctLjM5YTguNjQgOC42NCAwIDAgMS0uNjYtLjY5IDguMyA4LjMgMCAwIDEtLjYtLjczcy0uMTYtLjEzLS4yLS4yYS4yMS4yMSAwIDAgMCAwIC4wNnYtLjEySDNhMS42IDEuNiAwIDAgMSAuMy0uNDNjLjMxLS4zNy43LS43Mi45Mi0xYS4yOC4yOCAwIDAgMCAuMDktLjE3LjM3LjM3IDAgMCAwIDAtLjM5Yy0uMTItLjM1LS4yLS43MS0uMzEtMS4wOGEzLjg4IDMuODggMCAwIDAtLjE0LS40NWMwLS4xNC0uMTEtLjI5LS4xNy0uNDJhNy41IDcuNSAwIDAgMS0uNDctMSAuMzMuMzMgMCAwIDAtLjM1LS4yOS4zMi4zMiAwIDAgMC0uMTkuMWgtMWExLjQ2IDEuNDYgMCAwIDEtLjQ3LjAyYy4xNC0uMDYgMC0uNDMgMC0uNTR2LTFjMC0uMzcuMDUtLjYzLjEtLjk0YTIuNiAyLjYgMCAwIDEgMC0uMjhoLS4wNi4wNmExLjkyIDEuOTIgMCAwIDEgLjUyLS4xaDEuMzRjLjM0IDAgLjUxLS40LjUyLS41YTYuODUgNi44NSAwIDAgMSAuNDYtLjk0Yy4xLS4yLjIxLS4zOS4zLS42cy4yMy0uNjMuMzYtLjk1QS4yOS4yOSAwIDAgMCA1IDYuNzZhLjI5LjI5IDAgMCAwLS4wOS0uMzEuMjUuMjUgMCAwIDAtLjE3IDBjLS4xOC0uMTctLjQyLS4zOS0uNjctLjY0YTEuNzQgMS43NCAwIDAgMS0uMzUtLjQzQzMuODYgNS40IDQgNSA0LjExIDVhOC42NCA4LjY0IDAgMCAxIC42OS0uNjYgOC40MyA4LjQzIDAgMCAxIC43NC0uNnMuMTMtLjE2LjE5LS4yaC0uMDYuMTNhMS44MSAxLjgxIDAgMCAxIC40NC4zYy4zMS4yNi41OC41NS44MS43OHYuMTZhLjMxLjMxIDAgMCAwIC40NC4wOWMuMzgtLjE0Ljc3LS4xOSAxLjE3LS4zNGE1LjggNS44IDAgMCAwIC42Mi0uMjdjMS0uNDggMS4zLS4yNSAxLjI4LS42NVYyLjI4YTEuOTIgMS45MiAwIDAgMSAuMS0uNTJzMCAwIDAtLjA1di0uMDZhLjMzLjMzIDAgMCAwIDAgLjA2IDIuNiAyLjYgMCAwIDEgLjI4IDBjLjMxLS4wNS42My0uMDggMS0uMXMuNjQgMCAxIDBjLjEgMCAuNDguMTQuNTMgMGExLjQ2IDEuNDYgMCAwIDEgLjA2LjU1djEuMTVjMCAuNTEuMzEuMTkgMS42NC42NGwuNjIuMTljLjIzLjA2LjQ0LjA5LjY1LjE1LjY2LjIyLjYzIDEgMS4wNi41OC4yNS0uMjMuNTktLjYyIDEtLjkzYTEuODEgMS44MSAwIDAgMSAuNDQtLjNIMTloLS4wNmMuMDYgMCAuMTUuMTcuMTkuMmE4LjQzIDguNDMgMCAwIDEgLjc0LjYgOC42NCA4LjY0IDAgMCAxIC42OS42NmMuMDcuMDcuMjUuNDMuMzkuMzdhMS43NCAxLjc0IDAgMCAxLS4zNS40M2MtLjMxLjMyLS42Ni42Mi0uODIuNzdhLjI5LjI5IDAgMCAwLS4yMy4xLjMxLjMxIDAgMCAwIDAgLjQ1IDQuMDggNC4wOCAwIDAgMSAuMzEuODcgMy42MiAzLjYyIDAgMCAwIC4xMy4zNWMuNjcgMS40OC4zMyAxLjY2Ljc2IDEuNjRzLjg2IDAgMS4zNCAwYTEuOTQgMS45NCAwIDAgMSAuNTIuMDlzMCAwIC4wNSAwaC4wNi0uMDZhMi42IDIuNiAwIDAgMSAwIC4yOGMuMDUuMy4wOC42My4xLjk0czAgLjY1IDAgMWMwIC4xLS4xMy40OCAwIC41M2ExLjQ2IDEuNDYgMCAwIDEtLjU1LjA2IDYuMiA2LjIgMCAwIDEtLjc2IDBoLS4zOWMtLjU0IDAtLjA4LjItLjcxIDEuNjgtLjEyLjI4LS4yMS41Ny0uMzEuODUtLjYzIDEuNzQtMS4yNSAxLjQtLjg0IDEuNzcuMjMuMjUuNjIuNTkuOTMgMWEyLjE1IDIuMTUgMCAwIDEgLjMuNDRzMCAwIDAgLjA1di4wN2EuMTQuMTQgMCAwIDAgMC0uMDZjLS4wNS4wNy0uMTcuMTUtLjIuMTlhOC40MyA4LjQzIDAgMCAxLS42Ljc0IDguNjQgOC42NCAwIDAgMS0uNjYuNjljLS4wOC4wOC0uNDMuMjUtLjM3LjM5YTEuNDEgMS40MSAwIDAgMS0uNDMtLjM1Yy0uMzMtLjMyLS42NC0uNjgtLjc5LS44NC0uMzctLjQtLjMxLjE5LTEuNDguMzktLjI1IDAtLjUuMDYtLjc0LjEyLS40NC4wOS0uODQuMjYtMS4yOS4zNGEuMy4zIDAgMCAwLS4yNC4xMS4zNC4zNCAwIDAgMC0uMTcuM3YxLjE1YTEuNDQgMS40NCAwIDAgMS0uMDcuNTVjLS4wNS0uMTUtLjQyIDAtLjUzIDBoLTFjLS4zNyAwLS42My0uMDUtLjk0LS4xYTIuNiAyLjYgMCAwIDEtLjI4IDAgLjMzLjMzIDAgMCAwIDAgLjA2di0uMTFhMS42IDEuNiAwIDAgMS0uMS0uNTJ2LTEuMzRhLjMxLjMxIDAgMCAwLS4zLS4zMy4zMi4zMiAwIDAgMC0uMzQuM2MtLjA1LjQtLjIxIDEtLjI1IDEuNmEyLjEyIDIuMTIgMCAwIDAgLjExLjg3Ljg3Ljg3IDAgMCAwIC4zNy40IDIuMTIgMi4xMiAwIDAgMCAuNjIuMjQgNy44OCA3Ljg4IDAgMCAwIDEuMS4xNyA2Ljg2IDYuODYgMCAwIDAgMS4xMSAwIDQuNzcgNC43NyAwIDAgMCAuNjctLjA3IDEgMSAwIDAgMCAuMzUtLjE1IDEuMzEgMS4zMSAwIDAgMCAuNDItMSA2LjkgNi45IDAgMCAwLS4xNy0xLjMzIDQuNCA0LjQgMCAwIDAgLjg3LjE1IDIuMTMgMi4xMyAwIDAgMCAuNTctLjA1IDIuNDkgMi40OSAwIDAgMCAuNTUtLjE2IDQuMjkgNC4yOSAwIDAgMCAuOTEtLjU2IDYgNiAwIDAgMCAuNzEuOSAxLjMyIDEuMzIgMCAwIDAgMSAuNDIgMSAxIDAgMCAwIC4zNi0uMTQgNS40OSA1LjQ5IDAgMCAwIC41Mi0uNDIgNi43OSA2Ljc5IDAgMCAwIDEuNDctMS42NyAyLjE5IDIuMTkgMCAwIDAgLjI2LS42MS44OS44OSAwIDAgMCAwLS41NCAyLjIgMi4yIDAgMCAwLS41NC0uN2MtLjI1LS4yMS0uNTQtLjQxLS44MS0uNmE1IDUgMCAwIDAgMS0xLjI3IDQuMTkgNC4xOSAwIDAgMCAuNDgtMS4yIDcuNDIgNy40MiAwIDAgMCAuMDktMSA2LjE0IDYuMTQgMCAwIDAgMSAuMTIgMS4zMyAxLjMzIDAgMCAwIDEtLjQyIDEgMSAwIDAgMCAuMTUtLjM1IDQuNzcgNC43NyAwIDAgMCAuMDctLjY3IDYuODYgNi44NiAwIDAgMCAwLTEuMTEgNi45MiA2LjkyIDAgMCAwLS4wNy0xLjE3WiIvPjxwYXRoIGZpbGwtcnVsZT0iZXZlbm9kZCIgZmlsbD0iIzE5MTkxOSIgZD0iTTIyLjY2IDEwLjE1aC0uMDYuMDZaIi8+PHBhdGggZmlsbC1ydWxlPSJldmVub2RkIiBmaWxsPSIjMTkxOTE5IiBkPSJNMS4zNCAxMC4yMmguMDYtLjA2WiIvPjxwYXRoIGZpbGwtcnVsZT0iZXZlbm9kZCIgZmlsbD0iIzE5MTkxOSIgZD0iTTIwLjQ4IDE4LjY2di0uMDYuMDdaIi8+PHBhdGggZmlsbC1ydWxlPSJldmVub2RkIiBmaWxsPSIjMTkxOTE5IiBkPSJNMyAxOC4xNHYtLjA3LjA2WiIvPjxwYXRoIGZpbGwtcnVsZT0iZXZlbm9kZCIgZmlsbD0iIzBjNmZmZiIgZD0iTTEyLjE5IDUuMjZjLTMuNDctLjY1LTYuMTEgMS42Ny03LjEzIDQuNThhNi43NSA2Ljc1IDAgMCAwIDIuNjkgOC4yOCA4LjE4IDguMTggMCAwIDAgNy43MiAwQTcuMzEgNy4zMSAwIDAgMCAxOC4yMSA3LjNhNS40OSA1LjQ5IDAgMCAwLTQuMDctMi4xLjM3LjM3IDAgMSAwLS4wNy43MyA0LjY0IDQuNjQgMCAwIDEgMy40NSAxLjg5IDYuMjcgNi4yNyAwIDAgMSAxLjA4IDMuODcgNi4zNSA2LjM1IDAgMCAxLTMuNjggNS4zOSA3IDcgMCAwIDEtNi41NyAwQzUuNzUgMTUuNjMgNS4yIDEyLjY1IDYgMTAuMTRzMy00LjcgNi4xLTQuMjVhLjMyLjMyIDAgMCAwIC4zNy0uMjYuMzIuMzIgMCAwIDAtLjI4LS4zN1oiLz48L2c+PC9zdmc+;" parent="1" vertex="1">
          <mxGeometry x="498" y="370" width="24" height="24" as="geometry" />
        </mxCell>
        <mxCell id="JU8ZH0bHldErWSdaX4iS-15" value="" style="shape=image;verticalLabelPosition=bottom;labelBackgroundColor=default;verticalAlign=top;aspect=fixed;imageAspect=0;image=data:image/svg+xml,PHN2ZyB4bWxucz0iaHR0cDovL3d3dy53My5vcmcvMjAwMC9zdmciIHZpZXdCb3g9IjAgMCAyNCAyNCI+PGc+PHBhdGggZmlsbD0ibm9uZSIgZD0iTTExIDEyYy4wNy4wNi4xMyAwIC4xNi0uMDlzLS4yMi4wMi0uMTYuMDlaIi8+PHBhdGggZmlsbD0ibm9uZSIgZD0iTTEzLjcgNC4zOXMwIC4wNS4wNi4wNWguMDZjLS4wMSAwLS4wOC0uMDctLjEyLS4wNVoiLz48cGF0aCBmaWxsPSIjMGM2ZmZmIiBkPSJNMjQgMTYuNzFjMC0xLjgyIDAtMy43My0uMDgtNS42M3MtLjEyLTMuODItLjIxLTUuNjRhMzIuNSAzMi41IDAgMCAwLS4xOC0zLjgyIDEuNSAxLjUgMCAwIDAtLjc3LTEuMTFBNi4xNCA2LjE0IDAgMCAwIDIxIC4xN2MtLjgyLS4wOC0xLjc4LS4xLTIuNTUtLjFMMy40MS4xOEgxLjc1di4wOGEuMzQuMzQgMCAwIDAtLjA2LjI3LjM1LjM1IDAgMCAwIC4wMi4yN3MwIC4wNyAwIC4wN2gxLjdsMTUgLjFjLjc1IDAgMS42NyAwIDIuNDYuMTJhNS4wOSA1LjA5IDAgMCAxIDEuNDguMjljLjA2IDAgLjA5LjA5LjEyLjE3YTIuMjcgMi4yNyAwIDAgMSAuMTMuNjdjLjA4Ljg2IDAgMi4wNSAwIDMuMjYuMDcgMS44LjExIDMuNy4xNCA1LjYxczAgMy44IDAgNS42MWMwIC43NS4wOSAyLjM1IDAgMy43NWE0IDQgMCAwIDEtLjQ5IDEuOTVjLS4xMyAwLS40Ni4wOC0uNzcuMTEtMS44My4xNy01Ljc1LjI3LTkuNjYuMjhzLTcuODItLjA1LTkuNi0uMjZjLS4zOS0uMDUtLjg2IDAtLjgtLjE1cy4wNSAwIC4wNyAwYTIuMTggMi4xOCAwIDAgMS0uMTMtLjU4QTcyLjU1IDcyLjU1IDAgMCAxIC44NCAxNCAxMjEuMzYgMTIxLjM2IDAgMCAxIDEgLjg3LjMuMyAwIDAgMCAuNzEuNTJhLjI5LjI5IDAgMCAwLS4zNS4yM0ExMjIuNjMgMTIyLjYzIDAgMCAwIDAgMTRhNzUgNzUgMCAwIDAgLjM5IDggMi44MiAyLjgyIDAgMCAwIC4zMyAxLjA3IDIuMTIgMi4xMiAwIDAgMCAxLjEzLjQyIDcyLjczIDcyLjczIDAgMCAwIDcuODMuNDJjNC40NS4wOCA5LjQyIDAgMTEuNzEtLjIxYTcuNjkgNy42OSAwIDAgMCAxLjI4LS4xOC44OS44OSAwIDAgMCAuMzUtLjIgMy43OCAzLjc4IDAgMCAwIC44Mi0yLjA4IDMxLjU2IDMxLjU2IDAgMCAwIC4xNi00LjUzWiIvPjxwYXRoIGZpbGw9IiMxOTE5MTkiIGQ9Ik0yMC42OSAxNmExLjE1IDEuMTUgMCAwIDAtMS0uMTQgMi42OSAyLjY5IDAgMCAwLS45MS41MSAxMi4zNSAxMi4zNSAwIDAgMC0xIDEgMy44NSAzLjg1IDAgMCAxLS4zNS4zNC41My41MyAwIDAgMS0uMjYuMTMgMSAxIDAgMCAxLS43NS0uMTggMy44IDMuOCAwIDAgMS0uNjctLjggMi4zNiAyLjM2IDAgMCAwLTEtLjc2IDMuODUgMy44NSAwIDAgMC0xLjcxLS4yMiAyLjc3IDIuNzcgMCAwIDAtMS4yMS4zNiA1Ljc0IDUuNzQgMCAwIDAtMS4zMSAxLjA3IDIuNTQgMi41NCAwIDAgMS0uNDYuNDIuNzQuNzQgMCAwIDEtLjQzLjA3IDEuMzYgMS4zNiAwIDAgMS0uNjMtLjIxYy0uNjctLjQzLTEuMDgtMS4xOC0xLjc3LTEuNTJhMi4xIDIuMSAwIDAgMC0xLjctLjEzIDMuODUgMy44NSAwIDAgMC0xLjczIDEuNSAxLjUgMS41IDAgMCAxLTEuNjcuNDguMy4zIDAgMCAwLS4zOS4xNy4zLjMgMCAwIDAgLjE3LjM5IDIuMDYgMi4wNiAwIDAgMCAxLjMyLjEgMi4yMyAyLjIzIDAgMCAwIDEuMTYtLjcgMy40MSAzLjQxIDAgMCAxIDEuMTUtMSAxLjIzIDEuMjMgMCAwIDEgMS4yNC4wNmMuNjUuMzcgMSAxLjEzIDEuNjIgMS41OGEyLjM4IDIuMzggMCAwIDAgMS4xOC40MiAyIDIgMCAwIDAgLjg1LS4wOSAyLjg1IDIuODUgMCAwIDAgLjkyLS42OSA1Ljc3IDUuNzcgMCAwIDEgLjg5LS43OCAxLjg4IDEuODggMCAwIDEgLjkxLS4zNCAzLjIyIDMuMjIgMCAwIDEgMSAuMDcgMS40MSAxLjQxIDAgMCAxIC43Ni40NSAzLjYxIDMuNjEgMCAwIDAgMS4xOCAxLjExIDEuOTQgMS45NCAwIDAgMCAxLjIxLjE0IDEuMzUgMS4zNSAwIDAgMCAuNjEtLjI3IDMuNzcgMy43NyAwIDAgMCAuNTMtLjUzIDEwIDEwIDAgMCAxIC44NC0xIDEuNzggMS43OCAwIDAgMSAuNi0uMzkuNDcuNDcgMCAwIDEgLjUxLjEyIDEyLjMzIDEyLjMzIDAgMCAxIC44NyAxLjE2LjM1LjM1IDAgMCAwIC40OC0uNWMtLjIxLS4yMy0uNTItMS4wNi0xLjA1LTEuNFoiLz48cGF0aCBmaWxsPSIjMTkxOTE5IiBkPSJNMjIgOC4zNmMtLjQ0LS42NS0uODEtMS42LTEuMjktMi4xOGExLjQ5IDEuNDkgMCAwIDAtMS4yMi0uNjMgMS4xNCAxLjE0IDAgMCAwLS44LjQ3IDUuODMgNS44MyAwIDAgMC0uNzYgMS40MSAzOC42IDM4LjYgMCAwIDAtMS4zNiA0LjhjMCAuMDctLjE1LjMtLjI2LjU1LS4xMS0uMzktLjE2LS44MS0uMjMtMS4wOXMtLjE1LS43NC0uMjEtMS4xMWMtLjI1LTEuNTQtLjMzLTMuMTMtLjY3LTQuNjVBOS43NyA5Ljc3IDAgMCAwIDE0Ljc3IDRhMS4wOSAxLjA5IDAgMCAwLS42NC0uNjQgMS4xIDEuMSAwIDAgMC0xLjI1LjQgNC45MSA0LjkxIDAgMCAwLS43NiAxLjc1cS0uMTIuNTItLjIxIDFjLS4yMiAxLjM0LS4yOCAyLjcxLS42MSA0YTEwIDEwIDAgMCAxLS4xMyAxLjI5Yy0uMDUgMC0uMDcgMC0uMS0uMDlhMS40MiAxLjQyIDAgMCAxLS4yLS4yOCAzLjEzIDMuMTMgMCAwIDEtLjI1LS42M2MtLjE4LS42LS4zNy0xLjItLjU3LTEuNzlzLS40My0xLjE5LS42Ny0xLjc2QTUuNTQgNS41NCAwIDAgMCA4LjcyIDZhLjc4Ljc4IDAgMCAwLS42MS0uMjguODYuODYgMCAwIDAtLjYxLjI4IDkuMjIgOS4yMiAwIDAgMC0xIDEuNDljLS4yNy40NC0uNTQuODgtLjkzIDFhLjcxLjcxIDAgMCAxLS40NS0uMDUgNC4zNCA0LjM0IDAgMCAwLTEtLjUuNzQuNzQgMCAwIDAtLjU3LjA4Yy0uMjEuMTEtLjM3LjM4LS41OC40NmEuMjkuMjkgMCAwIDEtLjI5LS4xQTMuMyAzLjMgMCAwIDAgMi4zNyA4IC44Ny44NyAwIDAgMCAyIDcuOTJhLjMxLjMxIDAgMCAwIDAgLjYxYy4xMiAwIC4yLjA5LjMuMTdhMS43NCAxLjc0IDAgMCAwIC4zNi4yNC43NS43NSAwIDAgMCAuNjEgMCAyLjM3IDIuMzcgMCAwIDAgLjYzLS40NS4xOS4xOSAwIDAgMSAuMTYgMGMuNDMuMTEuNjQuNDQgMSAuNTZhMS40MiAxLjQyIDAgMCAwIC42NyAwIDEuNTkgMS41OSAwIDAgMCAuODMtLjQ1QTEwLjI1IDEwLjI1IDAgMCAwIDcuOCA2Ljg4YTIuNDUgMi40NSAwIDAgMSAuMi0uMjlzMCAwIC4wNS0uMDZhMS41MyAxLjUzIDAgMCAxIC4xNS4yN2MuMTEuMjQuMi41My4zMi44NS4yMS41Ni40MSAxLjE0LjU5IDEuNzNzLjM1IDEuMTcuNSAxLjc2YTMuNDkgMy40OSAwIDAgMCAuNzYgMS40NiAxLjEgMS4xIDAgMCAwIDEgLjMyLjkyLjkyIDAgMCAwIC42MS0uNTggOS4xMSA5LjExIDAgMCAwIC4zNy0xLjQ5Yy4wOS0uMzUuMTYtLjcuMjMtMSAuMjMtMS4zNC4zLTIuNzEuNjMtNGE1Ljc1IDUuNzUgMCAwIDEgLjQxLTEuMzVjLS4wNi4xNC4xOS40Mi4yMy42OC4xNS4zNy4xNS44Mi4xNSAxLjAxLjM2IDEuNDkuNDYgMy4wNS43MyA0LjU3LjA4LjQuMTYuNzkuMjYgMS4xOGE4Ljg0IDguODQgMCAwIDAgLjQxIDEuNTEgMS42NyAxLjY3IDAgMCAwIC41Ny43MkEuNjYuNjYgMCAwIDAgMTcgMTRhNC41OCA0LjU4IDAgMCAwIC40OC0xLjU4Yy4xNS0uNjcuNS0yLjUzIDEtNC4wN2E2LjggNi44IDAgMCAxIC43Mi0xLjcxYy4xMS0uMTkuMi0uMzQuMzMtLjM1YS44LjggMCAwIDEgLjYyLjM1Yy40OC41NS44NSAxLjQ3IDEuMjkgMi4xYS4zNS4zNSAwIDAgMCAuNDguMDguMzQuMzQgMCAwIDAgLjA4LS40NlpNMTEgMTJjLS4wNiAwIC4wOS0uMDcuMTYtLjA5cy0uMDkuMDktLjE2LjA5Wm0yLjc2LTcuNTMtLjA2LS4wNWMtLjA2LS4wNS4wOCAwIC4xMi4wNXMtLjA0LS4wMi0uMDYtLjAzWiIvPjwvZz48L3N2Zz4=;" parent="1" vertex="1">
          <mxGeometry x="649" y="368" width="24" height="24" as="geometry" />
        </mxCell>
        <mxCell id="JU8ZH0bHldErWSdaX4iS-16" value="" style="shape=image;verticalLabelPosition=bottom;labelBackgroundColor=default;verticalAlign=top;aspect=fixed;imageAspect=0;image=data:image/svg+xml,PHN2ZyB4bWxucz0iaHR0cDovL3d3dy53My5vcmcvMjAwMC9zdmciIHZpZXdCb3g9IjAgMCAyNCAyNCI+PGc+PHBhdGggZmlsbD0iIzE5MTkxOSIgZD0iTTE1IDEwLjIzYTEuMjcgMS4yNyAwIDAgMCAuNzYuMzMgOS44MSA5LjgxIDAgMCAwIDEuNDMgMCAuMzUuMzUgMCAxIDAgMC0uN2MtLjM2IDAtLjc5LjA1LTEuMTYgMGExIDEgMCAwIDEtLjQtLjA5czAtLjE1IDAtLjI1QTcuMjEgNy4yMSAwIDAgMSAxNS42IDhoMS45OGExIDEgMCAwIDAgLjU4LS4xNy45NC45NCAwIDAgMCAuMTYtLjU1IDEyLjkzIDEyLjkzIDAgMCAxLS4wOC0xLjQ1aC4wOGExNC4xNCAxNC4xNCAwIDAgMSAxLjc0IDBjLjIzIDAgLjUuMTYuNTQuMDcuMS40NS0uMTcgMS41OC0uMDkgMS44M2EuNzUuNzUgMCAwIDAgLjc0LjQ4Yy4yOSAwIDEuMTQtLjI2IDEuNTItLjI0YTE0LjY5IDE0LjY5IDAgMCAxIC4wNiAxLjc4Yy0uNTEuMDctMS4zNS4wNy0xLjc1LjE0YS44NC44NCAwIDAgMC0uNTIuMjggMS4wNiAxLjA2IDAgMCAwLS4xLjU0IDE1LjM5IDE1LjM5IDAgMCAxIDAgMiAxMS40MiAxMS40MiAwIDAgMS0yLjE3LjF2LTEuNzNjMC0uMDQtLjU2LS40OC0uNi4wN2EuOTIuOTIgMCAwIDAgMCAuMTkgMTYgMTYgMCAwIDAgLjA1IDEuODggMS4wOCAxLjA4IDAgMCAwIC44LjM0IDIwLjI5IDIwLjI5IDAgMCAwIDIuMjggMGMuMTggMCAuNDItLjE2LjUyLS41NGExMi4yNiAxMi4yNiAwIDAgMCAuMTUtMi4xN2MuNTMgMCAxLjQ0IDAgMS44NS0uMDhhLjczLjczIDAgMCAwIC42NC0uNTdBMjAuNzggMjAuNzggMCAwIDAgMjQgOGExLjcxIDEuNzEgMCAwIDAtLjIxLS44MSAxIDEgMCAwIDAtLjc5LS4zMiAxMi40NyAxMi40NyAwIDAgMC0xLjM2LjIzVjUuNjNhMS4xMSAxLjExIDAgMCAwLS4zOS0uOC43OC43OCAwIDAgMC0uMzUtLjE0IDcuNzggNy43OCAwIDAgMC0xLjQyLS4wNyAxMC4xMSAxMC4xMSAwIDAgMC0xLjM4LjEuNzMuNzMgMCAwIDAtLjQyLjE5IDEuNjIgMS42MiAwIDAgMC0uMjcgMXYxLjExYy0uNDUgMC0xLjE1IDAtMS42Mi4wOGExLjU5IDEuNTkgMCAwIDAtLjc2LjI1LjYzLjYzIDAgMCAwLS4xNS4yNSA0IDQgMCAwIDAtLjA5IDEgOC4yMyA4LjIzIDAgMCAwIC4xMiAxLjM0LjcyLjcyIDAgMCAwIC4wOS4yOVoiLz48cGF0aCBmaWxsPSIjMGM2ZmZmIiBkPSJNMTUuMjQgMTguNzhhMjcuNDMgMjcuNDMgMCAwIDAtMi40My0zLjg1LjM1LjM1IDAgMCAwLS40OC0uMDcuMzQuMzQgMCAwIDAtLjA3LjQ5IDI2LjY1IDI2LjY1IDAgMCAxIDIuMyA0LjI5IDEuOSAxLjkgMCAwIDEtLjM2LjA5IDMzLjgxIDMzLjgxIDAgMCAxLTMuODEuMTVjLS41OCAwLTEuMSAwLTEuNDktLjA2YTI4LjkzIDI4LjkzIDAgMCAxIDIuOC01IC4zMS4zMSAwIDAgMCAwLS40My4zLjMgMCAwIDAtLjQzIDAgMzAgMzAgMCAwIDAtMy4zMSA1IDEuNDcgMS40NyAwIDAgMC0uMTUgMSAuNTkuNTkgMCAwIDAgLjM4LjM2IDE1LjkzIDE1LjkzIDAgMCAwIDQuMzEuMjUgMTQgMTQgMCAwIDAgMi41OS0uMzUuOTEuOTEgMCAwIDAgLjU3LS4zOS42OC42OCAwIDAgMCAwLS40NiA1LjU4IDUuNTggMCAwIDAtLjQyLTEuMDJaIi8+PHBhdGggZmlsbD0iIzE5MTkxOSIgZD0iTTIzLjg5IDE2Ljg3Yy0xLjQzLS40NC00LjY1LTEuNTktOC4yNi0yLjgxLTEuODEtLjYxLTMuNzEtMS4yNC01LjU1LTEuOEM1LjYgMTAuODggMS41NyA5LjgxLjY2IDkuNjlhLjMuMyAwIDAgMC0uMzUuMjUuMy4zIDAgMCAwIC4yNS4zNWMuODMuMTYgNC4yMyAxLjQgOC4yNSAyLjc1IDEuNzkuNiAzLjcgMS4yMiA1LjU1IDEuNzkgNCAxLjI1IDcuNzYgMi4zMSA5LjM1IDIuNzFhLjM0LjM0IDAgMCAwIC40Mi0uMjQuMzUuMzUgMCAwIDAtLjI0LS40M1oiLz48cGF0aCBmaWxsPSIjMTkxOTE5IiBkPSJNMi4yMiA4Ljc0YTYuMjIgNi4yMiAwIDAgMCAuODkuNDYgNy43NyA3Ljc3IDAgMCAwIC44OS4zMyA1LjM0IDUuMzQgMCAwIDAgNC45LTEuMTEgNS4wNyA1LjA3IDAgMCAwIDEuODgtNC42IDYuMTUgNi4xNSAwIDAgMC0uNTMtMS42NCA0LjMxIDQuMzEgMCAwIDAtMS0xLjQgNi4zOCA2LjM4IDAgMCAwLS42NC0uNDFjLS4zNi0uMjEtLjc1LS40My0xLS41MmEuMzQuMzQgMCAwIDAtLjQyLjE1LjM1LjM1IDAgMCAwIC4xNi40NmMuMTYuMDguNDUuMjUuNzMuNDJhNS41NyA1LjU3IDAgMCAxIC42Ny40NyAzLjU5IDMuNTkgMCAwIDEgLjc5IDEuMTcgNSA1IDAgMCAxIC4zOCAxLjQxIDQuMTMgNC4xMyAwIDAgMS0xLjY3IDMuNjUgNC4zIDQuMyAwIDAgMS0zLjg4LjgzIDguNzQgOC43NCAwIDAgMS0uODEtLjI5IDYuMjQgNi4yNCAwIDAgMS0uNzMtLjM3IDMuNSAzLjUgMCAwIDEtMS40NS0xLjg3IDMuNzUgMy43NSAwIDAgMSAwLTIuNDNBNS40NCA1LjQ0IDAgMCAxIDMuMTEuOTIgNC4wOCA0LjA4IDAgMCAxIDYgLjE1YS4zLjMgMCAwIDAgLjM0LS4yNy4zMS4zMSAwIDAgMC0uMjctLjM0QTQuNzQgNC43NCAwIDAgMCAyLjY2LjMgNi4xOSA2LjE5IDAgMCAwIC40OSAzLjExYTQuNjUgNC42NSAwIDAgMC0uMTUgMy4xIDQuNTIgNC41MiAwIDAgMCAxLjg4IDIuNTNaIi8+PHBhdGggZmlsbD0iIzE5MTkxOSIgZD0iTTYuMzcgMS42OWEuMTguMTggMCAwIDAgMC0uMTIgMS40NyAxLjQ3IDAgMCAwLS4yNC0uMzQuMzIuMzIgMCAwIDAtLjMzLS4zMS4zMS4zMSAwIDAgMC0uMzEuMzFjLS4xLjEyLS4xOC4xNS0uMjYuMzJhLjQ1LjQ1IDAgMCAwIDAgLjE2LjMzLjMzIDAgMCAwIDAgLjE1IDIuMzMgMi4zMyAwIDAgMC0uNzguMyAxLjU4IDEuNTggMCAwIDAtLjQ1LjQ4IDEuNzcgMS43NyAwIDAgMC0uMjEuNjEgMS4wOSAxLjA5IDAgMCAwIC4wOS41NCAxLjIyIDEuMjIgMCAwIDAgLjQ4LjUgMS44IDEuOCAwIDAgMCAuNDguMjQgNS44MiA1LjgyIDAgMCAxIDEuNC40MWwuMjQuMjlhLjgzLjgzIDAgMCAxLS42MS40NiAxLjYxIDEuNjEgMCAwIDEtMSAwYy0uMDggMC0uMjgtLjM1LS40Mi0uMjdBLjM1LjM1IDAgMCAwIDQuMjQgNWEuMzYuMzYgMCAwIDAtLjQxLjI4LjY0LjY0IDAgMCAwIC4xNy41NyAyLjMxIDIuMzEgMCAwIDAgLjU4LjQ5IDEuOCAxLjggMCAwIDAgLjU4LjIxLjg2Ljg2IDAgMCAwIDAgLjM5YzAgLjEuMTIuMTQuMTYuMjJzLjA5LjA2LjEuMWEuMzQuMzQgMCAwIDAgLjI3LjQuMzQuMzQgMCAwIDAgLjQxLS4yNyAxLjIxIDEuMjEgMCAwIDAgLjE5LS42NC4zMi4zMiAwIDAgMCAwLS4xN2guMThhMS43MSAxLjcxIDAgMCAwIDEuMDktLjg2IDEuMSAxLjEgMCAwIDAgLjA3LS44NUExLjY1IDEuNjUgMCAwIDAgNi45MiA0YTEuODkgMS44OSAwIDAgMC0uNDktLjI1QTYuNzEgNi43MSAwIDAgMSA1IDMuMzNoLS4xbC4xLS40MWExLjIxIDEuMjEgMCAwIDEgLjU2LS4yOSAyIDIgMCAwIDEgLjczIDAgLjgxLjgxIDAgMCAxIC4yNSAwIC4xOS4xOSAwIDAgMSAuMTEuMDkuMzEuMzEgMCAwIDAgLjU2LS4yNS44NC44NCAwIDAgMC0uMjEtLjM2IDEuMzcgMS4zNyAwIDAgMC0uNTMtLjIxaC0uMTVhLjMzLjMzIDAgMCAwIC4wNS0uMjFaIi8+PC9nPjwvc3ZnPg==;" parent="1" vertex="1">
          <mxGeometry x="647" y="285.5" width="24" height="24" as="geometry" />
        </mxCell>
        <mxCell id="JU8ZH0bHldErWSdaX4iS-17" value="" style="shape=image;verticalLabelPosition=bottom;labelBackgroundColor=default;verticalAlign=top;aspect=fixed;imageAspect=0;image=data:image/svg+xml,PHN2ZyB4bWxucz0iaHR0cDovL3d3dy53My5vcmcvMjAwMC9zdmciIHZpZXdCb3g9IjAgMCAyNCAyNCI+PGc+PHBhdGggZmlsbC1ydWxlPSJldmVub2RkIiBmaWxsPSIjMTkxOTE5IiBkPSJNMTAuMTUgMTcuMWMtMiAwLTYuMjktLjE0LTguMTEtLjg5LS4yNy0uMTEtLjQ4LS4xOC0uNTEtLjMzQzEuMjQgMTQuNjUuNjggMy41IDEuMSAxLjEzQS4zLjMgMCAwIDAgLjUxIDFDLS4xIDMuNTUtLjIgMTMuNDMuNDQgMTYuMTRhMS4zMiAxLjMyIDAgMCAwIC41Ni43NmMxLjY4IDEuMTEgNy4xNCAxIDkuMTUuODhhLjM0LjM0IDAgMCAwIDAtLjY4WiIvPjxwYXRoIGZpbGwtcnVsZT0iZXZlbm9kZCIgZmlsbD0iIzE5MTkxOSIgZD0iTTIuMTEgMWMyLjA5LS4wOSAxNS40Ni4xNSAxNy4xNy42Ny4zMS4zMi41IDMgLjU4IDMuNjMuMTkgMS40My4zMiAyLjY0LjQgNC4xYS4zLjMgMCAxIDAgLjYgMGMwLTEuMzEtLjA4LTIuODUtLjE3LTQuMTgtLjA4LTEuMTYgMC0zLjctLjc1LTQuMzdDMTguNTItLjQ0IDQuMjguMDkgMi4wNy4yOGEuMzQuMzQgMCAxIDAgLjA0LjcyWiIvPjxwYXRoIGZpbGwtcnVsZT0iZXZlbm9kZCIgZmlsbD0iIzE5MTkxOSIgZD0iTTMuMTUgM2EuNzUuNzUgMCAwIDAgMS4wNiAwQS42NC42NCAwIDAgMCA0IDIuMTNjLS42My0uMzItMS40NC4zMi0uODUuODdaIi8+PHBhdGggZmlsbC1ydWxlPSJldmVub2RkIiBmaWxsPSIjMTkxOTE5IiBkPSJNNS40MiAyLjc5YS43Ny43NyAwIDAgMCAxLjA3IDAgLjY0LjY0IDAgMCAwLS4xOC0uODRjLS42Ni0uMzctMS40OC4yNy0uODkuODRaIi8+PHBhdGggZmlsbC1ydWxlPSJldmVub2RkIiBmaWxsPSIjMTkxOTE5IiBkPSJNNy45MSAyLjc5QS43Ni43NiAwIDAgMCA5IDIuNzVhLjY0LjY0IDAgMCAwLS4xOC0uODRjLS42OS0uMzMtMS41LjMxLS45MS44OFoiLz48cGF0aCBmaWxsLXJ1bGU9ImV2ZW5vZGQiIGZpbGw9IiMwYzZmZmYiIGQ9Ik0xLjU3IDQuODZjMS4yNiAwIDQuNDUuMjYgOC4zMy4yNiAzLjUgMCA1Ljc4LS4xNiA4LjM0LS4yM2EuMzQuMzQgMCAwIDAgMC0uNjhjLTUuNTcgMC02LjA2LS41NS0xNi42OSAwYS4zLjMgMCAxIDAgLjAyLjY1WiIvPjxwYXRoIGZpbGwtcnVsZT0iZXZlbm9kZCIgZmlsbD0iIzE5MTkxOSIgZD0iTTIzLjEzIDIwLjYyYTYuNjUgNi42NSAwIDAgMC0zLTIuMTFjMi44LTEuNzIgMi42LTYuNy0uNzktNy4zNmEuMzQuMzQgMCAwIDAtLjQuMjdjLS4xMy42Ljc5LjIgMS42OCAxLjMzIDEuMzYgMS43NS4zOSA2LjE3LTQuMTggNS4xMS0zLjQ3LS43MS0zLjA2LTYuODMgMS43My02LjUyYS4zLjMgMCAxIDAgLjA2LS42IDQuMjggNC4yOCAwIDAgMC0yLjg1IDhjLTIuMi44OC00IDIuNjctMy43IDVhLjMuMyAwIDAgMCAuNiAwYy4xMS0xLjQ1IDItMy4yOCAzLjA2LTQuMDcuOS0uNTUuODgtLjUyIDEtLjYyYTUuNjYgNS42NiAwIDAgMCAzLjA4LS4xNCAxNS4xOSAxNS4xOSAwIDAgMSAyLjE4IDEuNzEgNS41MyA1LjUzIDAgMCAxIDEuODUgMyAuMy4zIDAgMCAwIC42IDAgNC4yMSA0LjIxIDAgMCAwLS45Mi0zWiIvPjxwYXRoIGZpbGwtcnVsZT0iZXZlbm9kZCIgZmlsbD0iIzE5MTkxOSIgZD0iTTE3LjExIDEzLjg5YTQuMzUgNC4zNSAwIDAgMS0yLjQuNjQuMy4zIDAgMCAwLS4wNS42YzIgLjM3IDIuNzkgMCA0LjQ0LTEuMDkuNjIuNjEgMS4xOSAxLjQzIDEuNTYgMWEuMzQuMzQgMCAwIDAgMC0uNDhjLS44NS0uODktLjkzLTEuODktMS44Mi0xLjYzYTEyLjY5IDEyLjY5IDAgMCAwLTEuNzMuOTZaIi8+PHBhdGggZmlsbC1ydWxlPSJldmVub2RkIiBmaWxsPSIjMGM2ZmZmIiBkPSJNNS43MyA3LjE0YTEuODggMS44OCAwIDAgMC0yLS44MiAxLjU3IDEuNTcgMCAwIDAtMSAxIDEuMzkgMS4zOSAwIDAgMCAxLjY5IDEuNzkgMS42OCAxLjY4IDAgMCAwIDEuMzEtMS45N1pNNC4zIDhjLS40NC4xNC0uNjYtLjItLjU0LS41Mi40NS0xLjE1IDIuMTMuMDUuNTQuNTJaIi8+PHBhdGggZmlsbC1ydWxlPSJldmVub2RkIiBmaWxsPSIjMTkxOTE5IiBkPSJNMTUuOSA3LjY1Yy0uMTEgMC0zLS4zLTMuMTItLjMxLS42Mi0uMDgtLjc0LS45MS0yLjQ1IDAtLjQ3LjI1LS40LjIyLTEtLjA1LS4yNS0uMTMtLjgxLS41Ny0xLjI4LS40MnMtLjQ2LjQyLS41Ny43OGMwIC4xLS4yNS4zNi0uMDUuNTZBLjMyLjMyIDAgMCAwIDggOC4wN2EuNTcuNTcgMCAwIDAgLjEtLjIxYzAtLjA3LjE4LS4xOC4yLS4yNy44LjU4IDEuMjEgMS4wNyAyLjExLjg1YTcuMTQgNy4xNCAwIDAgMSAxLjEzLS4zOC42LjYgMCAwIDEgLjMuMTEgMi4yMiAyLjIyIDAgMCAwIC44NC4zaDMuMjZhNi4zNSA2LjM1IDAgMCAwIDEuMzktLjI3LjM1LjM1IDAgMCAwLS4xNy0uNjcgOCA4IDAgMCAxLTEuMjYuMTJaIi8+PHBhdGggZmlsbC1ydWxlPSJldmVub2RkIiBmaWxsPSIjMTkxOTE5IiBkPSJNMTIuMTYgMTIuOTFjMC0uNjgtMS4yOS0uMDgtMS43MSAwcy0xLjM0LTEtMi4wOC0uNzNhLjg5Ljg5IDAgMCAwLS4zNy4zMiA1IDUgMCAwIDAtLjQxIDEgLjMuMyAwIDEgMCAuNTUuMjVjLjE0LS4yMS40NS0uNC41Ni0uNTVhMy44NCAzLjg0IDAgMCAwIDEuMjQuNzRjMS4xLjE1IDEuMjMtLjU0IDItLjY3YS4zMy4zMyAwIDAgMCAuMjItLjM2WiIvPjxwYXRoIGZpbGwtcnVsZT0iZXZlbm9kZCIgZmlsbD0iIzBjNmZmZiIgZD0iTTIuNzMgMTMuMDZhMS40MSAxLjQxIDAgMCAwIDIgMS40IDEuNDcgMS40NyAwIDAgMCAuODgtMWMuMzktMS45My0yLjc0LTIuNDYtMi44OC0uNFptMiAuMTRhLjU0LjU0IDAgMCAxLS43Ny4xOS42Ny42NyAwIDAgMS0uMS0uNzUuNjIuNjIgMCAwIDEgLjI5LS4xN2MuNzgtLjE0LjY1LjY1LjYxLjczWiIvPjwvZz48L3N2Zz4=;" parent="1" vertex="1">
          <mxGeometry x="206" y="212" width="24" height="24" as="geometry" />
        </mxCell>
        <mxCell id="JU8ZH0bHldErWSdaX4iS-20" value="" style="shape=image;verticalLabelPosition=bottom;labelBackgroundColor=default;verticalAlign=top;aspect=fixed;imageAspect=0;image=data:image/svg+xml,PHN2ZyB4bWxucz0iaHR0cDovL3d3dy53My5vcmcvMjAwMC9zdmciIHZpZXdCb3g9IjAgMCAyNCAyNCI+PGc+PHBhdGggZmlsbD0iIzE5MTkxOSIgZD0iTTE3LjcyIDE3LjRhNC40MyA0LjQzIDAgMCAwLS43Mi4wOWMtLjgzLjE2LTEuNjUuNTEtMi41LjZhMjEuOCAyMS44IDAgMCAxLTMuNDIuMDcgMjEuODYgMjEuODYgMCAwIDEtMi40OC0uMjUgNS4wNSA1LjA1IDAgMCAwIDEuMTktLjg1IDEuNjMgMS42MyAwIDAgMCAuMjEtMi4xOSAxLjg3IDEuODcgMCAwIDAtMi4yNS0uNjEgMTQuNjkgMTQuNjkgMCAwIDAtNC4xMSAyLjMxIDggOCAwIDAgMS0xLjI5LjcyYy0xIC40OC0yLjExLjkxLTIuMTEuOTFhLjMxLjMxIDAgMCAwLS4xOS40LjMyLjMyIDAgMCAwIC40MS4xOHMxLjE0LS40IDIuMTgtLjg2QTguNjMgOC42MyAwIDAgMCA0IDE3LjE1YTE2LjI5IDE2LjI5IDAgMCAxIDMuMzEtMS45Yy43OC0uMjkgMS41My0uNDcgMS44Ni4wOUEuODQuODQgMCAwIDEgOSAxNi41M2ExMC4xNCAxMC4xNCAwIDAgMS0xLjY4IDEgLjczLjczIDAgMCAwLS4zOC41NGMwIC4xOCAwIC40OC41Mi42M2ExNS4zNCAxNS4zNCAwIDAgMCAzLjU5LjU1IDIxLjcxIDIxLjcxIDAgMCAwIDMuNTktLjA2Yy44OC0uMSAxLjczLS40NSAyLjU5LS42MmEzLjcyIDMuNzIgMCAwIDEgLjU3LS4wOGMuMTQgMCAuMjQgMCAuMy4wNWEuNTguNTggMCAwIDEgMCAuNGMtLjEuNzQtLjg1IDEuMzctMS43NiAxLjkxYTExLjgxIDExLjgxIDAgMCAxLTQuMjEgMS41Yy0xLjE2LjA5LTIuOS4xOS00LjYzLjE1YTIzLjgzIDIzLjgzIDAgMCAxLTMuMDYtLjI1LjI4LjI4IDAgMCAwLS4zMy4yMy4yOS4yOSAwIDAgMCAuMjMuMzIgMjYuNDkgMjYuNDkgMCAwIDAgMy4xNC4zNGMxLjc1LjA5IDMuNTIuMDYgNC43MSAwYTEyLjU1IDEyLjU1IDAgMCAwIDQuNjItMS40NiA0LjE3IDQuMTcgMCAwIDAgMi4zMS0yLjU4IDEuNTkgMS41OSAwIDAgMC0uMjItMS4xOCAxLjI5IDEuMjkgMCAwIDAtMS4xOC0uNTJaIi8+PHBhdGggZmlsbD0iIzE5MTkxOSIgZD0iTTIyLjkzIDUuNjlhLjMxLjMxIDAgMCAwLS4zLS4zM0MyMC40MSA1LjE3IDE4LjIgNSAxNiA0Ljg2Yy0uNDEgMC0zLjQ3LS4wNi00LjQ2IDBhMzQgMzQgMCAwIDAtNy4zNiAxLjIzLjI3LjI3IDAgMSAwIC4xMy41MyA0MS43MSA0MS43MSAwIDAgMSA3LjI2LS43MWMyLjQ1LS4wNyA4LjU4IDAgMTEgLjA4YS4zMS4zMSAwIDAgMCAuMzYtLjNaIi8+PGc+PHBhdGggZmlsbD0iIzBjNmZmZiIgZD0ibTIyLjE5IDEyLjgtMi42Ny0uMDhWOS40NWgyLjY2Yy42OS0uMjQgMS0uNDggMC0uNjhzLTEuOC0uMTctMi43MS0uMjNjMC0uNjUtLjA4LTEuMjktLjEzLTEuOTNzLS42NC0uNTEtLjY2IDAtLjA5IDEuMjYtLjEzIDEuODlsLTEuNjQtLjA4aC0xLjYzYzAtLjYxLS4xMi0xLjIxLS4xOS0xLjgxcy0uNzItLjUzLS43NiAwIDAgMS4yIDAgMS44MWMwIDAtMS45NCAwLTIuODQuMTEtMi4xMy4xNC00LjI0LjM4LTYuMy42MWEuMjcuMjcgMCAwIDAtLjI1LjMuMjguMjggMCAwIDAgLjMuMjZjMi40Ni0uMTEgNS0uMTMgNy41NS0uMThoMS41NHYxYzAgLjU1LjA1IDEuMDguMDkgMS42MmwuMDYuNjZhNDEuMTEgNDEuMTEgMCAwIDAtNC4zMi41NC4yOC4yOCAwIDAgMCAuMDcuNTVjMS40My0uMSAyLjg3LS4wOSA0LjMzLS4wOS4wNy43MS4xNCAxLjQyLjIyIDIuMTNhLjMyLjMyIDAgMSAwIC42NCAwdi0yLjFoMy4xN2MuMDUuNzEuMTEgMS40MS4xNyAyLjExYS4zMS4zMSAwIDAgMCAuMzIuMy4zMi4zMiAwIDAgMCAuMzEtLjMzYzAtLjY5IDAtMS40LjA3LTIuMTFsMi43MS0uMTZjLjg5LS4zNi45Ni0uNTkuMDItLjg0Wm0tMy44MS0uMTFoLTIuOTR2LS43NGMwLS44MyAwLTEuNjUtLjA2LTIuNDhoMy4xNHYzLjI0WiIvPjxwYXRoIGZpbGw9IiMxOTE5MTkiIGQ9Ik0yMy4yNCAyLjY1YTQuMDUgNC4wNSAwIDAgMC0yLjM5LTEuNTNDMTguOTEuNjMgMTIuMjguOTMgMTEgMWEzMCAzMCAwIDAgMC0zLjg2LjQ5QTguNTQgOC41NCAwIDAgMCA1IDIuMDZhMi42MSAyLjYxIDAgMCAwLTEuMjEgMS4wNiA0LjUyIDQuNTIgMCAwIDAtLjU1IDIgMjAuNCAyMC40IDAgMCAwIDAgMi44NGMwIC42NS4wOCAxLjMyLjE2IDJzLjE4IDEuMy4zIDJhLjI3LjI3IDAgMCAwIC4zMi4yMy4yOS4yOSAwIDAgMCAuMjMtLjMycS0uMTUtLjk1LS4yNC0xLjkyQzQgOS4xNyA0IDguNTMgMy45NCA3Ljg5QTIxLjM0IDIxLjM0IDAgMCAxIDQgNS4xNGEzLjg2IDMuODYgMCAwIDEgLjQ5LTEuNTkgMS45MiAxLjkyIDAgMCAxIC44OS0uNzEgNy4zNCA3LjM0IDAgMCAxIDEuOTEtLjQ0IDMxLjY5IDMxLjY5IDAgMCAxIDMuNzYtLjRjMS4yNiAwIDctLjI0IDguNzggMGEzLjUgMy41IDAgMCAxIDIuNTcgMS4yNGMuNjkgMSAuNzIgNS41OC43MyA2Ljc5IDAgLjg0LS4wOSA2LS42IDdhLjk0Ljk0IDAgMCAxLS41Ny40NCAzLjU2IDMuNTYgMCAwIDEtMS4zNC4xNy4zMi4zMiAwIDAgMC0uMzUuMjguMzEuMzEgMCAwIDAgLjI5LjM0IDQuNDQgNC40NCAwIDAgMCAxLjYyLS4xNiAxLjYzIDEuNjMgMCAwIDAgMS0uNzZjLjUxLTEgLjg3LTUuMDcuODYtOC43Mi0uMDQtMi43OC0uMzItNS4yNi0uOC01Ljk3WiIvPjwvZz48L2c+PC9zdmc+;" parent="1" vertex="1">
          <mxGeometry x="793" y="209" width="24" height="24" as="geometry" />
        </mxCell>
        <mxCell id="JU8ZH0bHldErWSdaX4iS-21" value="" style="shape=image;verticalLabelPosition=bottom;labelBackgroundColor=default;verticalAlign=top;aspect=fixed;imageAspect=0;image=data:image/svg+xml,PHN2ZyB4bWxucz0iaHR0cDovL3d3dy53My5vcmcvMjAwMC9zdmciIHZpZXdCb3g9IjAgMCAyNCAyNCI+PGc+PHBhdGggZmlsbC1ydWxlPSJldmVub2RkIiBmaWxsPSIjMGM2ZmZmIiBkPSJNMjMuNDIgMi40NGEuNTQuNTQgMCAwIDAtLjM5LS4zIDQuMzUgNC4zNSAwIDAgMC0xLS4wNWMtMiAwLTYuNjkuNDItOC4yNyAwaC0uMDljLS4wOS0uMTktLjE5LS40MS0uMzItLjY3UzEzIC43MSAxMi44LjMyYS44LjggMCAwIDAtLjUtLjMyIDExLjQ4IDExLjQ4IDAgMCAwLTEuNTEgMGMtLjY0IDAtMS4xNSAwLTEuNjQuMDktLjc3LjA4LTEuNDYuMTktMi40NS4zNmEuMzEuMzEgMCAwIDAtLjI4LjMzLjMuMyAwIDAgMCAuMzIuMjhsNC4wNi4xMWMxLjMzIDAgMS4xOC0uMjMgMS44Ni43LjM5LjU4LjY2IDEgLjY2IDFhLjM1LjM1IDAgMCAwIC40Ni4xNS4zMy4zMyAwIDAgMCAuMTYtLjE5IDIyLjM4IDIyLjM4IDAgMCAwIDMuNS4xOWMxLjk1IDAgNC0uMDggNSAwYTEuMiAxLjIgMCAwIDEgLjIgMCAzMy42MyAzMy42MyAwIDAgMSAuMjEgNS40MiA5LjUzIDkuNTMgMCAwIDEtLjQ2IDMuMzZjLS4xMSAwLS4zMS4wNi0uNTIuMDgtMS40Ny4xNy00LjY4LjI2LTcuNTguMjhBNDIuMzEgNDIuMzEgMCAwIDEgOC43NiAxMmEzLjc4IDMuNzggMCAwIDEtMS0uMzFBMjIuMzggMjIuMzggMCAwIDEgNy4zNiA5Yy0uMjItMi42My0uMjktNS45LS41My03LjM2YS4zLjMgMCAxIDAtLjYuMDljLjIxIDEuNjYuMTUgNS42NS4zNiA4LjM5YTEzLjE4IDEzLjE4IDAgMCAwIC4zMSAyLjE2LjY2LjY2IDAgMCAwIC4zNi4zOEExMS41OSAxMS41OSAwIDAgMCA4LjUgMTNhNjAuNzcgNjAuNzcgMCAwIDAgOC42NC4zIDQ4LjQyIDQ4LjQyIDAgMCAwIDUuMTctLjMgMS41OSAxLjU5IDAgMCAwIC45LS4zNmMuNDQtLjU3LjY5LTIuMjguNzEtNC4xN2EyNi44NSAyNi44NSAwIDAgMC0uNS02LjAzWiIvPjxwYXRoIGZpbGwtcnVsZT0iZXZlbm9kZCIgZmlsbD0iIzE5MTkxOSIgZD0iTTE2LjM1IDE3LjM0Yy0uMTcgMC0uMzMuMDgtLjUuMTJsLjA2LS4wOWExLjM1IDEuMzUgMCAwIDAtLjQ2LTEuNjkgMi4zOSAyLjM5IDAgMCAwLTIuMjMtLjQxIDE2LjQ2IDE2LjQ2IDAgMCAwLTEuNTMuOTJjLS42MS4zOS0xLjM0Ljg3LTIuMSAxLjI3YTYuNTkgNi41OSAwIDAgMS0yLjQ3Ljg2aC0uM3MtLjA2LS4wNi0uMDktLjExYTEuNzkgMS43OSAwIDAgMS0uMTMtLjQ2IDcuNTcgNy41NyAwIDAgMC0uNDUtMS44OSAxLjUgMS41IDAgMCAwLS43Ni0uNzMgMS4yIDEuMiAwIDAgMC0xLjM5LjE1IDIuODIgMi44MiAwIDAgMC0uNTYgMS4zMWMtLjA4LjM3LS4xMS43NS0uMjkuOTJhMi43NCAyLjc0IDAgMCAxLS43LjQzYy0uNjguMjgtMS40OS40My0yLjEyLjcxYS4zNS4zNSAwIDAgMC0uMTcuNDYuMzMuMzMgMCAwIDAgLjQ1LjE3Yy41OC0uMjggMS4zOS0uMzggMi4wNy0uNjVhMy4xNCAzLjE0IDAgMCAwIC45NC0uNTUgMS42IDEuNiAwIDAgMCAuNC0uNzEgOS4yMiA5LjIyIDAgMCAxIC40MS0xLjMyYy4xMS0uMjEuMjktLjI5LjYyLS4xNXMuMzkuNTMuNDYuOTNhMTIuMjMgMTIuMjMgMCAwIDAgLjI2IDEuNTcgMS4xNiAxLjE2IDAgMCAwIC44NS44NiAyMS43NSAyMS43NSAwIDAgMCAzLjUyLjM2IDE2Ljg5IDE2Ljg5IDAgMCAwIDMuNTYtLjIxYy44LS4xNyAxLjU1LS41NyAyLjMyLS44YTMuMTQgMy4xNCAwIDAgMSAuNTEtLjEyLjMyLjMyIDAgMCAxIC4xOSAwYy4wOC4wNSAwIC4xNyAwIC4zYTEuNzMgMS43MyAwIDAgMS0uNzIgMS4zMyA2LjMyIDYuMzIgMCAwIDEtMi42NSAxYy0uODcuMTYtMi40LjM5LTMuOTQuNnMtMyAuNC00IC40OGE2LjQ1IDYuNDUgMCAwIDAtMi4zNy41MSAxLjU4IDEuNTggMCAwIDAtLjgyLjg2LjMxLjMxIDAgMCAwIC4xNy40LjMuMyAwIDAgMCAuMzktLjE2IDEuMTcgMS4xNyAwIDAgMSAuODEtLjY0IDguMjggOC4yOCAwIDAgMSAxLjg3LS4yNmMuOTMgMCAyLjQ4LS4xNyA0LS4zMnMzLjEyLS4zMyA0LS40NkE3LjE3IDcuMTcgMCAwIDAgMTYuNyAyMWEyLjc3IDIuNzcgMCAwIDAgMS4yLTIuMTggMS41NCAxLjU0IDAgMCAwLS4zMy0xLjEyIDEuMjYgMS4yNiAwIDAgMC0xLjIyLS4zNlptLTYuMTkgMS4xOGgtLjcycS4yNy0uMDkuNTQtLjIxYTIxLjQ0IDIxLjQ0IDAgMCAwIDIuMy0xLjE0Yy42Ny0uMzggMS4xNi0uNzIgMS4zNS0uNzlhMS4xNiAxLjE2IDAgMCAxIC43NiAwIDEuMDggMS4wOCAwIDAgMSAuNTcuMzdjMCAuMDYuMDkuMTIuMDYuMThhMi41NCAyLjU0IDAgMCAxLS44MS45NCA2LjMyIDYuMzIgMCAwIDEtLjU3LjM3bC0uMTguMDZhMTcuMTEgMTcuMTEgMCAwIDEtMy4zLjIyWiIvPjwvZz48L3N2Zz4=;" parent="1" vertex="1">
          <mxGeometry x="793" y="282.5" width="24" height="24" as="geometry" />
        </mxCell>
        <mxCell id="JU8ZH0bHldErWSdaX4iS-22" value="" style="shape=image;verticalLabelPosition=bottom;labelBackgroundColor=default;verticalAlign=top;aspect=fixed;imageAspect=0;image=data:image/svg+xml,PHN2ZyB4bWxucz0iaHR0cDovL3d3dy53My5vcmcvMjAwMC9zdmciIHZpZXdCb3g9IjAgMCAyNCAyNCI+PGc+PHBhdGggZmlsbD0iIzE5MTkxOSIgZD0iTTE2Ljc5IDE0YTEuNjQgMS42NCAwIDAgMCAuODUtLjQgMiAyIDAgMCAwIC41NS0xLjE4IDEwLjkzIDEwLjkzIDAgMCAwLS4xMS0yLjM1bC0uMzItMi44M2E3LjIxIDcuMjEgMCAwIDAtLjA4LS44NyAxLjE2IDEuMTYgMCAwIDAtLjI3LS41MyAyLjEgMi4xIDAgMCAwLTEtLjU2IDYuNSA2LjUgMCAwIDAtMS40OC0uMTZoLTQuODFBMjAuMzEgMjAuMzEgMCAwIDAgOCA1LjI4YS4zMy4zMyAwIDAgMC0uMjkuMzYuMzIuMzIgMCAwIDAgLjM2LjI5Yy42NCAwIDEuMzUtLjA3IDIuMDctLjA2IDEuMDggMCAyLjE5IDAgMy4xNS4wOGgxLjZhNC43MyA0LjczIDAgMCAxIDEuMjYuMTggMS4xNiAxLjE2IDAgMCAxIC41OC4zM2wuMDUuODMuMDcuNzVoLS4xMWEyNy42MSAyNy42MSAwIDAgMC00LjA2LS4xNGMtLjggMC0xLjYxLjEtMi40MS4xOS0xLjE3LjE0LTIuMzQuMzYtMy41My40OSAwLS43Ni4wNi0xLjUzIDAtMi4zMWEuMjkuMjkgMCAwIDAtLjU4IDBjMCAxLjQzLS4xOCAyLjg1LS4yNSA0LjI5djEuMWMwIC4zNy0uMDguODEtLjA3IDEuMjRhMS41IDEuNSAwIDAgMCAuMi43NiAxLjA5IDEuMDkgMCAwIDAgLjU1LjM1IDMuMzEgMy4zMSAwIDAgMCAxIC4xbDMuMDYtLjIyaDQuNTVhNy44MyA3LjgzIDAgMCAwIDEuNTkuMTFabS02LjE0LTEuMS0zLjA5LjM0YTMuMTQgMy4xNCAwIDAgMS0uNDUgMGMtLjE1IDAtLjMyIDAtLjM5LS4wNmExIDEgMCAwIDEtLjA2LS40M1Y5LjE4aDRsLjkxLS4wN2MwIC4zNS0uMDcuNy0uMDggMS4wNnMwIC40OSAwIC43MyAwIC41LjA3Ljc0Yy4wNi40Mi4xMy44Mi4yMiAxLjIzWm0yLS4wN3YtMS4zMWE5LjMgOS4zIDAgMCAwIDAtMS4xOEE5Ljg1IDkuODUgMCAwIDAgMTIuNDMgOWguNzFsLjkxLS4wOGE5LjczIDkuNzMgMCAwIDAtLjEyIDEuMDcgNS40IDUuNCAwIDAgMCAwIC43YzAgLjI0LjA1LjQ2LjA5LjY5LjA5LjUxLjIyIDEgLjM0IDEuNWgtMVptMi40MiAwdi0yLjI3YzAtLjIzIDAtLjQ1LS4wNy0uNjctLjA1LS4zNy0uMTMtLjcyLS4xOS0xLjA4LjYzLS4wNSAxLjI2LS4wOSAxLjktLjFhLjQxLjQxIDAgMCAwIC4xOS0uMDVsLjEgMS40OGExNiAxNiAwIDAgMSAuMTMgMS44NiAxLjIxIDEuMjEgMCAwIDEtLjI1LjgxLjcyLjcyIDAgMCAxLS40Mi4xMmMtLjQyIDAtLjg3LS4wNy0xLjE5LS4wOFoiLz48Zz48cGF0aCBmaWxsLXJ1bGU9ImV2ZW5vZGQiIGZpbGw9IiMxOTE5MTkiIGQ9Ik0yMiAyMS4wOGEzIDMgMCAwIDAtLjY3LTEuMzNBMTcuNjkgMTcuNjkgMCAwIDAgMjAgMTguNDJsLS44OC0uODhjLS44OS0uODMtMS4zNS0uNDEtLjc1LjI4LjM2LjM4LjY5Ljc5IDEgMS4xN3MuODkuODYgMS4yNiAxLjM1YTIuMDcgMi4wNyAwIDAgMSAuMzkuOTEgMS40MSAxLjQxIDAgMCAxLS44NiAxLjM4IDEuNTggMS41OCAwIDAgMS0xLjY3LjA4IDIuODUgMi44NSAwIDAgMS0uNTctLjU4IDEwLjQ2IDEwLjQ2IDAgMCAxLS43Mi0xLjI0Yy0uMzYtLjY4LS43Mi0xLjM2LTEtMi4wN2EuNDIuNDIgMCAwIDAgMC0uMWMtLjUtLjgtLjg4LS41LS42Mi4yOCAwIC4xNS4wOS4zLjE1LjQ1cS4zNC45My43NSAxLjgzYTEwLjcgMTAuNyAwIDAgMCAuNjggMS40MSAzLjQ0IDMuNDQgMCAwIDAgLjc3Ljg4IDIuNjMgMi42MyAwIDAgMCAyLjg1IDBBMi40MyAyLjQzIDAgMCAwIDIyIDIxLjA4WiIvPjxwYXRoIGZpbGwtcnVsZT0iZXZlbm9kZCIgZmlsbD0iIzBjNmZmZiIgZD0iTTE1LjY5IDE3LjY3YS4yNi4yNiAwIDAgMCAwLS4zMS4yOS4yOSAwIDAgMC0uNC0uMSAzLjYxIDMuNjEgMCAwIDEtMSAuMzkgMTAuODkgMTAuODkgMCAwIDEtMS43MS4yNSAxMS4wOSAxMS4wOSAwIDAgMS00LjM2LS40OSA3Ljg3IDcuODcgMCAwIDEtMy41OS0yLjMzIDcuNiA3LjYgMCAwIDEtMS4yNC03LjM5QTkuMzEgOS4zMSAwIDAgMSA4LjQzIDJhMTEuNjYgMTEuNjYgMCAwIDEgMi4yOC0uNzFBNy41MiA3LjUyIDAgMCAxIDEzIDEuMTNhOC4xMyA4LjEzIDAgMCAxIDUuMyAzLjA1IDkuNDQgOS40NCAwIDAgMSAyLjA2IDUuODkgMTEuMjcgMTEuMjcgMCAwIDEtLjMxIDIuNDcgNi4yOCA2LjI4IDAgMCAxLTEgMi4yMiAxMi43MyAxMi43MyAwIDAgMS0xLjQ4IDEuNDQgMy45NCAzLjk0IDAgMCAxLTEuMTEuNy4zMy4zMyAwIDAgMC0uMjIuNDEuMy4zIDAgMCAwIC4xNS4xOCAyOC44NCAyOC44NCAwIDAgMCAzLjI0LTIuMyA2Ljc5IDYuNzkgMCAwIDAgMS4xNC0yLjQ2IDExLjMzIDExLjMzIDAgMCAwIC4zOS0yLjY1IDEwLjIgMTAuMiAwIDAgMC0yLjE0LTYuNDlBOSA5IDAgMCAwIDEzLjE3LjA2YTguNTkgOC41OSAwIDAgMC0yLjY3LjExQTEzLjIzIDEzLjIzIDAgMCAwIDggLjk0YTEwLjMxIDEwLjMxIDAgMCAwLTUuNjMgNi40M0E4LjQzIDguNDMgMCAwIDAgNCAxNS42NWE4LjYzIDguNjMgMCAwIDAgNCAyLjQ5IDEyIDEyIDAgMCAwIDQuNjUuNCAxMi4yMiAxMi4yMiAwIDAgMCAxLjgtLjMgNy42OCA3LjY4IDAgMCAwIDEuMjQtLjU3WiIvPjwvZz48L2c+PC9zdmc+;" parent="1" vertex="1">
          <mxGeometry x="410" y="118" width="24" height="24" as="geometry" />
        </mxCell>
        <mxCell id="JU8ZH0bHldErWSdaX4iS-23" value="" style="group" parent="1" vertex="1" connectable="0">
          <mxGeometry x="800" y="147" width="22" height="24" as="geometry" />
        </mxCell>
        <mxCell id="JU8ZH0bHldErWSdaX4iS-5" value="" style="shape=hexagon;perimeter=hexagonPerimeter2;whiteSpace=wrap;html=1;fixedSize=1;strokeColor=none;size=10;" parent="JU8ZH0bHldErWSdaX4iS-23" vertex="1">
          <mxGeometry width="22" height="24" as="geometry" />
        </mxCell>
        <mxCell id="JU8ZH0bHldErWSdaX4iS-3" value="" style="shape=image;verticalLabelPosition=bottom;labelBackgroundColor=default;verticalAlign=top;aspect=fixed;imageAspect=0;image=data:image/svg+xml,PHN2ZyB4bWxucz0iaHR0cDovL3d3dy53My5vcmcvMjAwMC9zdmciIHZpZXdCb3g9IjAgMCAyNCAyNCI+PHBhdGggZmlsbD0iIzE5MTkxOSIgZD0iTTIzLjA3IDYuMTJhLjg3Ljg3IDAgMCAwLS4zNi0uMzhjLS4zMS0uMTktMS0uNTgtMS44My0xLTIuNDYtMS40MS02LjU0LTMuNTctOC4xOC00LjM4YS4zNi4zNiAwIDAgMC0uNDcuMTYuMzUuMzUgMCAwIDAgLjE2LjQ2Yy44Ny40NCAyLjQzIDEuMjggNC4wNiAyLjE4IDIuMTMgMS4xNyA0LjM4IDIuNDQgNS40MSAzLjA3bC40LjI2Yy4wOS42NC4xNSAzLjEuMTUgNS41NiAwIDEuNzUgMCAzLjUtLjExIDQuNjFhOC4xMSA4LjExIDAgMCAxLS4xLjg0bC0uMTguMTVjLS4zMy4yLS44Ni40OS0xLjUyLjg0LTIuMjcgMS4yMi02IDMuMDgtNy44OSAzLjkzbC0uODUuMzZjLS44Ny0uNDMtMy42Ny0xLjc5LTYuMTItMy0xLjMyLS42Ny0zLjcyLTIuMTktMy44Mi0yLjE4YTQxLjE2IDQxLjE2IDAgMCAxLS4yMy00LjE2Yy0uMDYtMi42NyAwLTYuNjIgMC02LjYyLjE0LS4xMS40NC0uMjQuNjktLjQxQzQuNTQgNC44NiAxMC42NyAxIDExLjYuNThhLjMuMyAwIDAgMCAuMi0uMTMuMzEuMzEgMCAwIDAtLjA5LS40NWMtLjE4LS4xMi0yLjE0Ljc4LTUuNjEgMy0xLjg3IDEuMjktMy44MiAyLjM5LTQuNjggM2E0LjEyIDQuMTIgMCAwIDAtLjQ5LjM3LjU0LjU0IDAgMCAwLS4xNi4yOGMtLjEuNTEtLjE4IDMuODUtLjE3IDYuNzhBMzEuNzEgMzEuNzEgMCAwIDAgLjgyIDE4YTEgMSAwIDAgMCAuMzIuNDJBMTMuNTEgMTMuNTEgMCAwIDAgMyAxOS42M2MyLjgzIDEuNTggNy43OSA0IDguNDIgNC4yOWEuNjQuNjQgMCAwIDAgLjQzIDAgNC4wOSA0LjA5IDAgMCAwIC41Mi0uMThjLjc1LS4zMiAyLjMzLTEuMDcgNC0xLjkyIDIuMjctMS4xNCA0Ljc3LTIuNDYgNS45LTMuMTRhMi43OCAyLjc4IDAgMCAwIC43Ny0uNiAxLjQxIDEuNDEgMCAwIDAgLjE3LS41NCAyNi43MyAyNi43MyAwIDAgMCAuMTMtMy4yMSA3OC40NSA3OC40NSAwIDAgMC0uMjctOC4yMVoiLz48L3N2Zz4=;rotation=90;" parent="JU8ZH0bHldErWSdaX4iS-23" vertex="1">
          <mxGeometry width="22" height="22" as="geometry" />
        </mxCell>
        <mxCell id="rVn1v7B969SPrqMLo2-p-1" value="" style="shape=image;verticalLabelPosition=bottom;labelBackgroundColor=default;verticalAlign=top;aspect=fixed;imageAspect=0;image=data:image/svg+xml,PHN2ZyB4bWxucz0iaHR0cDovL3d3dy53My5vcmcvMjAwMC9zdmciIHZpZXdCb3g9IjAgMCAyNCAyNCI+PGc+PHBhdGggZmlsbD0iIzE5MTkxOSIgZD0iTTE3LjcyIDE3LjRhNC40MyA0LjQzIDAgMCAwLS43Mi4wOWMtLjgzLjE2LTEuNjUuNTEtMi41LjZhMjEuOCAyMS44IDAgMCAxLTMuNDIuMDcgMjEuODYgMjEuODYgMCAwIDEtMi40OC0uMjUgNS4wNSA1LjA1IDAgMCAwIDEuMTktLjg1IDEuNjMgMS42MyAwIDAgMCAuMjEtMi4xOSAxLjg3IDEuODcgMCAwIDAtMi4yNS0uNjEgMTQuNjkgMTQuNjkgMCAwIDAtNC4xMSAyLjMxIDggOCAwIDAgMS0xLjI5LjcyYy0xIC40OC0yLjExLjkxLTIuMTEuOTFhLjMxLjMxIDAgMCAwLS4xOS40LjMyLjMyIDAgMCAwIC40MS4xOHMxLjE0LS40IDIuMTgtLjg2QTguNjMgOC42MyAwIDAgMCA0IDE3LjE1YTE2LjI5IDE2LjI5IDAgMCAxIDMuMzEtMS45Yy43OC0uMjkgMS41My0uNDcgMS44Ni4wOUEuODQuODQgMCAwIDEgOSAxNi41M2ExMC4xNCAxMC4xNCAwIDAgMS0xLjY4IDEgLjczLjczIDAgMCAwLS4zOC41NGMwIC4xOCAwIC40OC41Mi42M2ExNS4zNCAxNS4zNCAwIDAgMCAzLjU5LjU1IDIxLjcxIDIxLjcxIDAgMCAwIDMuNTktLjA2Yy44OC0uMSAxLjczLS40NSAyLjU5LS42MmEzLjcyIDMuNzIgMCAwIDEgLjU3LS4wOGMuMTQgMCAuMjQgMCAuMy4wNWEuNTguNTggMCAwIDEgMCAuNGMtLjEuNzQtLjg1IDEuMzctMS43NiAxLjkxYTExLjgxIDExLjgxIDAgMCAxLTQuMjEgMS41Yy0xLjE2LjA5LTIuOS4xOS00LjYzLjE1YTIzLjgzIDIzLjgzIDAgMCAxLTMuMDYtLjI1LjI4LjI4IDAgMCAwLS4zMy4yMy4yOS4yOSAwIDAgMCAuMjMuMzIgMjYuNDkgMjYuNDkgMCAwIDAgMy4xNC4zNGMxLjc1LjA5IDMuNTIuMDYgNC43MSAwYTEyLjU1IDEyLjU1IDAgMCAwIDQuNjItMS40NiA0LjE3IDQuMTcgMCAwIDAgMi4zMS0yLjU4IDEuNTkgMS41OSAwIDAgMC0uMjItMS4xOCAxLjI5IDEuMjkgMCAwIDAtMS4xOC0uNTJaIi8+PHBhdGggZmlsbD0iIzE5MTkxOSIgZD0iTTIyLjkzIDUuNjlhLjMxLjMxIDAgMCAwLS4zLS4zM0MyMC40MSA1LjE3IDE4LjIgNSAxNiA0Ljg2Yy0uNDEgMC0zLjQ3LS4wNi00LjQ2IDBhMzQgMzQgMCAwIDAtNy4zNiAxLjIzLjI3LjI3IDAgMSAwIC4xMy41MyA0MS43MSA0MS43MSAwIDAgMSA3LjI2LS43MWMyLjQ1LS4wNyA4LjU4IDAgMTEgLjA4YS4zMS4zMSAwIDAgMCAuMzYtLjNaIi8+PGc+PHBhdGggZmlsbD0iIzBjNmZmZiIgZD0ibTIyLjE5IDEyLjgtMi42Ny0uMDhWOS40NWgyLjY2Yy42OS0uMjQgMS0uNDggMC0uNjhzLTEuOC0uMTctMi43MS0uMjNjMC0uNjUtLjA4LTEuMjktLjEzLTEuOTNzLS42NC0uNTEtLjY2IDAtLjA5IDEuMjYtLjEzIDEuODlsLTEuNjQtLjA4aC0xLjYzYzAtLjYxLS4xMi0xLjIxLS4xOS0xLjgxcy0uNzItLjUzLS43NiAwIDAgMS4yIDAgMS44MWMwIDAtMS45NCAwLTIuODQuMTEtMi4xMy4xNC00LjI0LjM4LTYuMy42MWEuMjcuMjcgMCAwIDAtLjI1LjMuMjguMjggMCAwIDAgLjMuMjZjMi40Ni0uMTEgNS0uMTMgNy41NS0uMThoMS41NHYxYzAgLjU1LjA1IDEuMDguMDkgMS42MmwuMDYuNjZhNDEuMTEgNDEuMTEgMCAwIDAtNC4zMi41NC4yOC4yOCAwIDAgMCAuMDcuNTVjMS40My0uMSAyLjg3LS4wOSA0LjMzLS4wOS4wNy43MS4xNCAxLjQyLjIyIDIuMTNhLjMyLjMyIDAgMSAwIC42NCAwdi0yLjFoMy4xN2MuMDUuNzEuMTEgMS40MS4xNyAyLjExYS4zMS4zMSAwIDAgMCAuMzIuMy4zMi4zMiAwIDAgMCAuMzEtLjMzYzAtLjY5IDAtMS40LjA3LTIuMTFsMi43MS0uMTZjLjg5LS4zNi45Ni0uNTkuMDItLjg0Wm0tMy44MS0uMTFoLTIuOTR2LS43NGMwLS44MyAwLTEuNjUtLjA2LTIuNDhoMy4xNHYzLjI0WiIvPjxwYXRoIGZpbGw9IiMxOTE5MTkiIGQ9Ik0yMy4yNCAyLjY1YTQuMDUgNC4wNSAwIDAgMC0yLjM5LTEuNTNDMTguOTEuNjMgMTIuMjguOTMgMTEgMWEzMCAzMCAwIDAgMC0zLjg2LjQ5QTguNTQgOC41NCAwIDAgMCA1IDIuMDZhMi42MSAyLjYxIDAgMCAwLTEuMjEgMS4wNiA0LjUyIDQuNTIgMCAwIDAtLjU1IDIgMjAuNCAyMC40IDAgMCAwIDAgMi44NGMwIC42NS4wOCAxLjMyLjE2IDJzLjE4IDEuMy4zIDJhLjI3LjI3IDAgMCAwIC4zMi4yMy4yOS4yOSAwIDAgMCAuMjMtLjMycS0uMTUtLjk1LS4yNC0xLjkyQzQgOS4xNyA0IDguNTMgMy45NCA3Ljg5QTIxLjM0IDIxLjM0IDAgMCAxIDQgNS4xNGEzLjg2IDMuODYgMCAwIDEgLjQ5LTEuNTkgMS45MiAxLjkyIDAgMCAxIC44OS0uNzEgNy4zNCA3LjM0IDAgMCAxIDEuOTEtLjQ0IDMxLjY5IDMxLjY5IDAgMCAxIDMuNzYtLjRjMS4yNiAwIDctLjI0IDguNzggMGEzLjUgMy41IDAgMCAxIDIuNTcgMS4yNGMuNjkgMSAuNzIgNS41OC43MyA2Ljc5IDAgLjg0LS4wOSA2LS42IDdhLjk0Ljk0IDAgMCAxLS41Ny40NCAzLjU2IDMuNTYgMCAwIDEtMS4zNC4xNy4zMi4zMiAwIDAgMC0uMzUuMjguMzEuMzEgMCAwIDAgLjI5LjM0IDQuNDQgNC40NCAwIDAgMCAxLjYyLS4xNiAxLjYzIDEuNjMgMCAwIDAgMS0uNzZjLjUxLTEgLjg3LTUuMDcuODYtOC43Mi0uMDQtMi43OC0uMzItNS4yNi0uOC01Ljk3WiIvPjwvZz48L2c+PC9zdmc+;" parent="1" vertex="1">
          <mxGeometry x="205" y="283" width="24" height="24" as="geometry" />
        </mxCell>
        <mxCell id="RBs_c_6SxoZN4L7MB-DU-1" value="other Data Product over Data Contract" style="text;html=1;strokeColor=none;fillColor=none;align=center;verticalAlign=middle;whiteSpace=wrap;rounded=0;fontSize=8;fontFamily=Architects Daughter;fontSource=https%3A%2F%2Ffonts.googleapis.com%2Fcss%3Ffamily%3DArchitects%2BDaughter;" parent="1" vertex="1">
          <mxGeometry x="226" y="292" width="90" height="30" as="geometry" />
        </mxCell>
      </root>
    </mxGraphModel>
  </diagram>
</mxfile>
